<?xml version="1.0" standalone="no"?>
<!DOCTYPE svg PUBLIC "-//W3C//DTD SVG 20010904//EN"
 "http://www.w3.org/TR/2001/REC-SVG-20010904/DTD/svg10.dtd">
<svg version="1.0" xmlns="http://www.w3.org/2000/svg"
 width="317.000000pt" height="313.000000pt" viewBox="0 0 317.000000 313.000000"
 preserveAspectRatio="xMidYMid meet">

<g transform="translate(0.000000,313.000000) scale(0.100000,-0.100000)"
fill="#000000" stroke="none">
<path d="M1390 3110 c-636 -88 -1150 -539 -1314 -1151 -132 -497 -6 -1034 331
-1410 241 -269 528 -433 882 -505 171 -35 411 -37 576 -4 335 66 605 209 835
439 138 139 222 256 300 416 66 135 100 233 132 380 18 84 22 132 22 300 0
172 -3 215 -23 305 -136 617 -600 1079 -1219 1211 -111 23 -411 34 -522 19z
m472 -29 c527 -91 974 -450 1171 -941 156 -390 142 -840 -37 -1216 -341 -712
-1156 -1060 -1900 -812 -762 253 -1202 1050 -1006 1823 148 590 632 1039 1229
1145 149 26 392 26 543 1z"/>
<path d="M1320 3039 c-218 -41 -459 -145 -630 -273 -47 -35 -131 -111 -187
-169 -160 -164 -270 -345 -343 -566 -57 -169 -74 -277 -74 -466 0 -244 40
-427 140 -634 74 -156 151 -266 268 -388 263 -274 587 -429 966 -464 329 -30
666 55 950 239 362 234 599 592 671 1013 18 105 20 149 16 289 -8 232 -43 382
-139 589 -107 233 -320 472 -554 623 -147 94 -362 176 -549 208 -156 27 -387
26 -535 -1z m247 -50 c8 -8 -2 -22 -33 -51 -24 -22 -44 -45 -44 -50 0 -11 42
0 51 14 3 5 13 6 23 2 16 -6 16 -8 -1 -27 -11 -12 -12 -17 -4 -12 11 6 13 4 6
-11 -4 -10 -10 -36 -13 -56 -5 -42 -17 -49 -27 -17 -6 19 -8 19 -31 4 -23 -15
-24 -15 -24 9 0 31 22 50 38 34 9 -9 12 -6 12 14 0 23 -3 25 -35 21 -19 -2
-35 1 -35 6 0 5 20 31 45 59 25 27 45 55 45 61 0 14 13 14 27 0z m117 -21 c14
-69 15 -117 2 -127 -8 -7 -17 -31 -20 -55 -4 -24 -13 -52 -21 -62 -13 -17 -14
-13 -15 45 l0 63 -25 -16 c-24 -16 -25 -16 -25 7 0 13 4 27 9 33 6 5 12 32 14
59 4 37 9 49 20 47 8 -1 20 5 27 13 18 21 29 19 34 -7z m672 -214 c-8 -20 -36
-18 -36 3 0 9 8 25 18 36 17 19 17 19 20 -3 2 -12 1 -28 -2 -36z m-1477 7 c11
-11 41 -52 68 -91 26 -40 52 -77 57 -85 15 -20 1 -40 -47 -65 -41 -22 -51 -23
-86 -14 l-41 11 7 -40 c9 -61 -13 -44 -63 48 -31 57 -42 87 -38 105 28 127 90
184 143 131z m1548 -21 l26 -20 -32 0 c-24 0 -31 4 -31 20 0 11 3 20 6 20 3 0
17 -9 31 -20z m-41 -37 c41 -4 64 -2 68 6 12 19 28 12 24 -11 -2 -19 -8 -22
-35 -20 -27 3 -33 0 -33 -16 0 -11 -9 -30 -19 -43 -16 -19 -22 -22 -32 -11
-11 10 -10 12 3 12 9 0 20 10 24 22 13 41 -59 65 -102 33 -19 -14 -54 -20 -54
-9 0 3 8 16 18 30 14 20 23 23 47 19 17 -3 57 -9 91 -12z m-65 -63 l24 -20
-27 -21 c-32 -24 -35 -44 -11 -71 14 -16 15 -18 0 -18 -9 0 -19 5 -22 10 -4 7
-12 7 -25 0 -30 -16 -55 -12 -80 15 -26 27 -17 33 14 10 21 -16 56 -20 56 -7
-1 4 -19 19 -40 34 -22 15 -40 32 -40 38 0 15 27 12 33 -4 3 -8 20 -22 36 -31
29 -15 31 -14 31 4 0 10 7 22 16 25 16 6 16 8 0 24 -9 10 -16 22 -16 25 0 14
28 6 51 -13z m-479 -28 c412 -102 734 -439 813 -854 20 -106 20 -290 0 -394
-43 -225 -139 -407 -299 -568 -452 -455 -1209 -427 -1619 60 -110 131 -176
260 -224 443 -23 84 -26 116 -26 256 0 141 3 172 26 258 54 204 159 379 316
529 151 144 320 233 531 279 118 26 358 21 482 -9z m973 -341 c3 -12 -6 -30
-28 -55 -36 -38 -54 -45 -63 -22 -5 12 -11 11 -37 -4 -18 -10 -49 -21 -69 -24
-33 -6 -38 -4 -38 12 0 38 32 62 89 69 46 5 56 3 68 -13 14 -19 14 -19 28 0 8
10 12 23 9 27 -3 5 -2 14 1 19 10 16 33 11 40 -9z m-2442 -109 c8 -42 27 -58
27 -24 0 14 2 15 10 2 5 -8 10 -24 10 -35 0 -12 20 -36 50 -60 54 -43 52 -54
-7 -34 -28 9 -38 9 -41 0 -2 -6 -10 -11 -19 -11 -9 0 -12 6 -8 19 4 13 0 20
-15 24 -15 4 -20 0 -20 -15 0 -12 7 -26 17 -33 21 -15 10 -45 -16 -45 -29 0
-71 18 -71 30 0 6 10 8 25 4 29 -7 30 0 14 57 -11 37 -19 43 -83 63 -18 6 -18
7 0 27 13 15 26 19 46 15 16 -3 28 -1 28 4 0 23 21 61 32 58 7 -3 16 -23 21
-46z m2460 21 c4 -3 2 -12 -4 -20 -7 -8 -8 -13 -1 -13 5 0 24 -14 42 -30 27
-25 30 -33 20 -45 -17 -21 -38 -19 -89 10 -53 30 -62 32 -27 4 26 -21 28 -43
2 -33 -8 3 -30 -2 -51 -10 -32 -14 -35 -18 -25 -31 7 -8 19 -15 26 -15 17 0
18 -11 1 -34 -12 -16 -15 -14 -39 23 -24 37 -25 41 -9 55 10 9 24 16 32 16 8
0 -1 8 -18 16 -38 19 -34 34 7 34 16 0 32 5 35 10 4 6 15 8 26 5 24 -8 25 4 2
21 -17 12 -17 14 2 28 21 16 57 21 68 9z m80 -14 c6 -23 -18 -38 -35 -21 -7 7
-6 15 3 26 19 21 26 20 32 -5z m-133 -1019 c12 -8 11 -10 -6 -10 -25 0 -40
-28 -20 -36 8 -3 28 2 45 10 55 29 101 16 101 -28 -1 -33 -22 -54 -45 -46 -18
7 -18 9 8 19 15 6 27 15 27 21 0 20 -32 23 -60 6 -37 -21 -63 -20 -85 4 -16
18 -17 23 -5 45 15 28 18 29 40 15z m-2338 -17 c13 -15 31 -73 22 -73 -1 0
-10 -3 -19 -7 -15 -5 -16 -3 -5 16 17 33 6 51 -32 51 -69 0 -126 -63 -80 -89
9 -6 12 -11 5 -11 -35 -1 -56 60 -30 92 31 40 112 52 139 21z m2296 -72 c10
-6 9 -10 -7 -14 -29 -7 -26 -31 5 -46 23 -10 26 -10 20 4 -5 13 -1 15 17 9 30
-9 34 -14 18 -23 -11 -7 -9 -11 7 -20 34 -18 45 -14 40 19 -5 32 1 37 19 19 9
-9 7 -21 -8 -50 -11 -22 -21 -39 -23 -39 -1 0 -27 13 -57 30 -30 16 -62 30
-71 30 -22 0 -22 10 -1 55 18 37 21 39 41 26z m-2248 -37 c0 -8 -13 -20 -30
-25 -30 -11 -39 -32 -20 -44 10 -6 51 12 61 28 4 5 10 0 14 -12 4 -13 5 -23 3
-24 -56 -31 -142 -66 -149 -62 -16 10 -10 35 9 35 29 0 53 23 42 40 -8 13 -13
13 -41 -3 -31 -17 -49 -15 -48 6 0 13 139 85 152 79 4 -2 7 -10 7 -18z m2210
-76 c0 -5 -4 -7 -9 -4 -4 3 -17 -1 -27 -9 -24 -17 -13 -40 37 -73 41 -28 71
-25 79 8 4 18 8 21 14 11 12 -19 -13 -60 -41 -67 -48 -13 -123 42 -123 89 0
27 38 67 56 60 8 -3 14 -9 14 -15z m-2143 -54 c-24 -21 -141 -83 -148 -79 -20
13 -6 31 41 54 28 13 58 32 67 42 16 15 19 16 30 1 7 -8 12 -16 10 -18z m29
-37 c3 -8 -4 -35 -15 -60 -23 -53 -18 -58 22 -21 21 19 32 23 40 15 8 -8 8
-11 -2 -11 -7 0 -38 -18 -70 -40 -31 -22 -60 -40 -64 -40 -3 0 7 29 23 65 16
36 26 65 23 65 -3 0 -26 -16 -50 -36 -24 -20 -47 -33 -50 -30 -4 3 -4 7 -2 9
72 47 119 81 119 88 0 14 20 10 26 -4z m2024 -5 c0 -5 25 -26 55 -48 30 -21
55 -43 55 -47 0 -4 -16 -5 -35 -2 -19 3 -51 8 -71 11 -44 7 -39 -4 21 -44 24
-16 42 -32 38 -35 -3 -4 -29 14 -58 38 -29 25 -60 45 -69 45 -19 0 -21 14 -3
29 10 8 29 8 63 2 27 -5 51 -8 52 -6 2 2 -12 14 -32 27 -35 23 -46 38 -26 38
6 0 10 -4 10 -8z m-1928 -116 c24 -30 26 -36 12 -47 -13 -11 -15 -10 -14 2 7
43 -15 53 -44 20 -16 -18 -16 -19 -1 -23 15 -3 15 -5 -4 -22 -20 -18 -21 -18
-21 -1 0 17 -1 17 -20 0 -28 -26 -25 -45 7 -45 26 0 26 -1 10 -17 -16 -16 -19
-15 -47 17 -16 19 -29 37 -29 40 0 3 24 25 54 49 30 24 55 47 55 52 0 18 15 8
42 -25z m1853 14 c3 -5 0 -10 -7 -10 -8 0 -19 -5 -26 -12 -9 -9 -8 -16 5 -30
20 -23 37 -23 29 -1 -6 15 -4 14 14 -2 15 -13 17 -21 8 -26 -8 -5 -5 -13 12
-27 30 -24 40 -20 40 16 0 25 1 25 17 9 16 -16 15 -19 -12 -47 -16 -17 -32
-29 -36 -28 -4 2 -33 27 -64 57 l-56 53 27 29 c30 31 39 35 49 19z m-1768 -96
c12 -18 11 -23 -3 -35 -15 -12 -16 -11 -10 9 5 16 3 24 -9 28 -23 9 -29 -1
-27 -46 4 -55 -12 -80 -48 -80 -37 0 -60 34 -37 57 13 13 14 12 10 -10 -6 -28
12 -44 31 -28 9 8 12 26 9 55 -5 37 -2 46 18 60 29 20 47 17 66 -10z m1722
-36 c44 -48 52 -60 41 -73 -10 -12 -19 -5 -62 45 -27 33 -54 60 -60 60 -6 0
-5 6 2 15 16 20 15 21 79 -47z m-107 -8 c-39 -7 -40 -40 -2 -84 36 -40 69 -47
77 -16 6 22 23 28 23 8 -1 -31 -49 -63 -80 -53 -32 10 -70 64 -70 99 0 44 54
90 72 62 5 -7 -3 -13 -20 -16z m-1533 -18 c19 -16 22 -22 13 -38 -11 -18 -11
-18 -12 3 0 31 -18 38 -41 17 -23 -21 -25 -38 -3 -30 15 6 13 -4 -10 -32 -8
-11 -11 -11 -16 3 -5 15 -9 13 -24 -10 -15 -23 -16 -29 -5 -36 8 -5 22 -6 31
-3 13 4 16 1 12 -10 -8 -22 -20 -20 -59 10 -30 23 -33 28 -20 40 26 27 80 107
77 116 -3 10 23 -3 57 -30z m1449 -51 c3 -8 -4 -10 -23 -5 -23 6 -26 4 -23
-12 2 -13 15 -21 40 -25 49 -8 68 -25 68 -60 0 -36 -40 -60 -65 -39 -21 18
-19 32 4 19 21 -14 55 -5 49 13 -3 7 -23 17 -46 23 -54 13 -76 36 -68 68 8 34
54 47 64 18z m-1288 -63 c0 -21 -29 -150 -35 -156 -2 -3 -11 1 -20 8 -12 10
-13 16 -3 27 10 12 9 18 -7 30 -18 12 -22 12 -36 -6 -9 -11 -19 -17 -23 -14
-7 7 103 123 116 123 4 0 8 -6 8 -12z m1130 -2 c0 -2 3 -13 7 -23 6 -16 5 -16
-11 -4 -23 19 -39 2 -30 -33 6 -25 24 -37 24 -16 0 18 18 10 23 -11 4 -15 2
-19 -9 -15 -19 7 -18 -14 2 -43 14 -19 14 -25 3 -32 -8 -5 -16 -9 -19 -9 -3 1
-21 34 -41 76 l-35 75 35 19 c36 19 51 24 51 16z m-991 -46 c16 -14 21 -25 15
-37 -7 -16 -8 -16 -11 4 -5 23 -25 35 -47 27 -21 -8 -48 -70 -44 -102 2 -22 8
-27 31 -27 15 1 27 -2 27 -6 0 -13 -39 -16 -62 -5 -45 22 -32 122 21 151 34
19 42 18 70 -5z m876 -16 c40 -16 59 -112 28 -146 -44 -49 -115 5 -115 89 0
54 34 77 87 57z m-775 -103 c0 -84 -1 -89 -20 -84 -15 4 -19 12 -16 29 3 17
-1 25 -16 30 -21 6 -42 -12 -32 -28 3 -4 -2 -8 -10 -8 -9 0 -16 3 -16 6 0 9
99 144 106 144 2 0 4 -40 4 -89z m134 48 c20 -16 26 -29 26 -58 0 -55 -31 -91
-79 -91 -21 0 -40 2 -43 5 -3 3 1 29 9 57 7 29 14 65 15 80 3 35 33 38 72 7z
m432 -37 c-9 -33 -11 -64 -6 -87 7 -32 6 -35 -14 -35 -17 0 -22 7 -24 32 -2
17 -16 53 -32 80 l-30 48 25 0 c14 0 25 -6 25 -12 0 -7 9 -24 20 -38 l20 -25
1 23 c1 12 3 30 3 40 1 15 16 35 23 28 1 -1 -4 -25 -11 -54z m-289 23 c8 -24
-4 -30 -22 -11 -22 22 -35 12 -35 -27 1 -30 1 -31 15 -13 14 19 15 19 15 -6 0
-27 -19 -51 -21 -26 0 7 -5 0 -10 -17 -11 -37 3 -55 31 -37 17 10 20 10 20 -3
0 -11 -12 -15 -50 -15 -47 0 -50 1 -45 23 3 12 7 50 8 84 l2 63 43 0 c29 0 44
-5 49 -15z m171 -73 c4 -76 2 -82 -16 -82 -17 0 -20 8 -24 73 -5 83 -2 99 21
95 13 -3 17 -19 19 -86z m-87 28 c17 -44 17 -44 27 -20 6 14 11 21 11 16 1
-13 -21 -90 -29 -99 -3 -4 -16 21 -28 55 l-22 63 3 -67 c2 -43 -1 -68 -8 -68
-6 0 -10 33 -10 85 0 80 1 86 20 83 13 -2 25 -18 36 -48z"/>
<path d="M1631 2914 c0 -11 3 -14 6 -6 3 7 2 16 -1 19 -3 4 -6 -2 -5 -13z"/>
<path d="M1627 2873 c-4 -3 -7 -11 -7 -17 0 -6 5 -5 12 2 6 6 9 14 7 17 -3 3
-9 2 -12 -2z"/>
<path d="M790 2728 c-25 -42 -25 -48 3 -48 27 -1 64 -30 76 -62 10 -23 10 -23
10 5 1 15 8 30 16 34 22 8 30 -4 15 -22 -10 -12 -9 -20 5 -42 18 -26 17 -27
-3 -41 -12 -8 -22 -18 -22 -23 0 -19 41 -8 70 19 l30 27 -46 70 c-81 126 -116
144 -154 83z m78 -40 c-3 -7 -11 -13 -18 -13 -7 0 -15 6 -17 13 -3 7 4 12 17
12 13 0 20 -5 18 -12z"/>
<path d="M770 2608 c-1 -22 -1 -23 -15 -4 -8 11 -15 16 -15 10 0 -5 10 -20 21
-34 11 -14 18 -19 14 -12 -3 6 -2 12 3 12 6 0 12 -6 15 -12 3 -7 19 -21 36
-31 26 -15 31 -16 31 -3 0 8 3 23 6 33 5 17 5 17 -9 1 -22 -27 -35 -22 -54 22
-20 45 -33 52 -33 18z"/>
<path d="M841 2614 c0 -11 3 -14 6 -6 3 7 2 16 -1 19 -3 4 -6 -2 -5 -13z"/>
<path d="M780 2545 c0 -6 9 -23 21 -40 19 -28 20 -28 14 -5 -7 26 -35 62 -35
45z"/>
<path d="M1371 2585 c-411 -93 -708 -373 -818 -772 -24 -88 -27 -115 -27 -258
0 -134 3 -174 22 -247 82 -313 269 -547 552 -688 508 -255 1141 -56 1410 443
220 408 146 904 -184 1233 -131 131 -281 219 -462 271 -77 22 -113 26 -259 29
-123 3 -188 0 -234 -11z m329 -5 c288 -35 540 -181 717 -415 63 -83 138 -241
170 -360 23 -87 27 -119 27 -245 0 -161 -18 -254 -72 -388 -145 -354 -496
-612 -872 -640 -204 -15 -375 15 -544 96 -275 132 -461 353 -552 657 -25 83
-27 104 -27 265 -1 148 3 187 21 253 141 510 620 839 1132 777z"/>
<path d="M1625 2499 c-77 -34 -144 -64 -148 -68 -4 -5 -19 -39 -32 -77 -57
-168 -125 -357 -128 -360 -2 -3 -46 44 -97 103 l-93 108 -161 6 c-88 3 -162 5
-163 5 -2 -2 -33 -281 -33 -303 0 -10 67 -95 149 -188 82 -94 147 -173 143
-176 -4 -3 -67 -18 -141 -32 -74 -15 -135 -28 -137 -30 -9 -8 -164 -261 -164
-266 0 -3 44 -37 97 -76 53 -38 110 -80 127 -92 l31 -23 225 44 c159 30 226
39 228 31 1 -6 -17 -68 -41 -136 l-45 -125 72 -131 c39 -72 74 -135 78 -139 7
-6 273 100 292 117 5 4 41 101 82 214 40 114 75 210 79 213 3 3 11 -2 18 -10
6 -9 47 -56 89 -105 l78 -90 107 -6 c58 -4 132 -7 163 -7 l57 0 16 138 c10 75
17 148 17 162 -1 18 -45 76 -150 195 -82 93 -146 173 -142 176 4 3 59 16 122
28 63 12 125 24 136 26 23 5 177 236 178 266 1 25 -242 200 -268 194 -79 -19
-430 -84 -434 -80 -2 2 16 65 42 140 l46 136 -76 139 c-42 77 -77 140 -78 139
0 0 -64 -27 -141 -60z m-35 -568 c38 -71 -60 -130 -99 -60 -13 24 -13 29 2 53
22 33 80 37 97 7z m320 -131 c27 -27 25 -46 -5 -76 -27 -27 -59 -26 -82 4 -45
57 36 123 87 72z m-250 -39 c0 -6 -4 -13 -10 -16 -19 -12 -9 -24 70 -81 44
-31 80 -61 80 -66 0 -4 -11 -8 -24 -8 -26 0 -36 -28 -36 -104 0 -22 -3 -51 -6
-64 -6 -21 -8 -21 -24 -7 -15 14 -25 11 -109 -25 -51 -22 -94 -40 -97 -40 -3
0 0 9 6 20 6 11 9 24 6 28 -3 5 -39 33 -80 62 -79 57 -91 71 -53 67 21 -2 23
4 36 101 8 56 18 102 21 102 4 0 11 -9 16 -19 9 -18 13 -17 94 19 90 40 110
46 110 31z m-360 -21 c35 -35 20 -83 -32 -95 -19 -5 -32 -1 -47 14 -26 26 -27
55 -1 81 11 11 29 20 40 20 11 0 29 -9 40 -20z m642 -287 c33 -30 17 -84 -29
-98 -17 -4 -29 1 -48 19 -30 30 -32 49 -5 76 24 24 57 26 82 3z m-608 -59 c18
-18 20 -47 6 -75 -12 -22 -68 -27 -88 -7 -16 16 -16 70 0 86 17 17 64 15 82
-4z m316 -144 c11 -11 20 -28 20 -38 0 -29 -29 -62 -56 -62 -29 0 -64 32 -64
60 0 11 9 29 20 40 11 11 29 20 40 20 11 0 29 -9 40 -20z"/>
<path d="M1540 1653 c-40 -15 -60 -46 -60 -94 0 -40 4 -51 31 -73 50 -43 120
-31 153 26 46 76 -38 172 -124 141z"/>
<path d="M340 2136 c0 -9 5 -16 10 -16 6 0 10 4 10 9 0 6 -4 13 -10 16 -5 3
-10 -1 -10 -9z"/>
<path d="M2790 2131 c0 -12 54 -51 69 -51 22 0 10 21 -21 40 -36 22 -48 25
-48 11z"/>
<path d="M952 428 c-14 -14 -16 -28 -3 -28 9 0 24 30 18 36 -2 2 -9 -2 -15 -8z"/>
<path d="M1970 395 c-19 -23 17 -119 48 -123 19 -3 22 1 22 28 0 33 -34 110
-49 110 -5 0 -14 -7 -21 -15z"/>
<path d="M1196 324 c-8 -21 -8 -24 3 -24 12 0 22 28 12 35 -5 3 -12 -2 -15
-11z"/>
<path d="M1346 351 c-4 -5 -9 -37 -13 -72 -5 -50 -4 -61 8 -57 19 6 43 83 35
113 -6 25 -20 32 -30 16z"/>
</g>
</svg>
