<?xml version="1.0" standalone="no"?>
<!DOCTYPE svg PUBLIC "-//W3C//DTD SVG 20010904//EN"
 "http://www.w3.org/TR/2001/REC-SVG-20010904/DTD/svg10.dtd">
<svg version="1.0" xmlns="http://www.w3.org/2000/svg"
 width="220.000000pt" height="221.000000pt" viewBox="0 0 220.000000 221.000000"
 preserveAspectRatio="xMidYMid meet">

<g transform="translate(0.000000,221.000000) scale(0.100000,-0.100000)"
fill="#000000" stroke="none">
<path d="M910 2165 c-529 -96 -912 -576 -887 -1115 18 -381 237 -726 577 -908
249 -134 560 -160 840 -71 236 75 465 260 591 476 102 174 139 303 146 507 6
164 -3 239 -44 371 -103 329 -368 596 -699 704 -158 51 -361 65 -524 36z m335
-40 c227 -34 409 -122 574 -280 139 -133 237 -301 288 -493 23 -84 26 -117 26
-252 0 -136 -3 -167 -26 -255 -159 -595 -778 -926 -1352 -721 -244 87 -448
265 -567 493 -94 180 -123 313 -115 522 4 118 10 164 31 236 119 403 440 687
850 750 110 18 173 17 291 0z"/>
<path d="M923 2086 c-429 -82 -756 -428 -814 -862 -70 -526 307 -1029 834
-1114 120 -20 321 -8 430 24 92 27 221 88 297 139 66 45 196 173 246 243 60
84 117 202 150 309 26 85 28 101 28 275 0 173 -2 191 -27 273 -106 342 -364
597 -704 694 -110 31 -327 40 -440 19z m-115 -144 c4 -48 -27 -102 -58 -102
-17 0 -70 52 -70 70 0 18 85 81 105 78 16 -2 21 -12 23 -46z m650 -30 c2 -14
14 -27 29 -33 33 -12 24 -33 -15 -37 -42 -4 -41 -19 8 -81 36 -46 38 -51 20
-51 -36 0 -59 19 -71 60 -11 37 -13 38 -33 25 -22 -16 -96 -21 -96 -6 0 5 10
12 23 15 12 3 30 13 41 21 17 13 17 15 2 30 -26 27 -20 45 13 39 24 -5 29 -2
35 21 8 33 39 31 44 -3z m-568 -62 c22 -41 5 -95 -27 -83 -8 3 -27 -7 -42 -21
-25 -24 -31 -26 -50 -14 -28 17 -55 72 -38 77 7 2 28 18 47 36 19 18 42 35 50
37 20 7 47 -8 60 -32z m353 -116 c196 -44 355 -170 442 -349 47 -98 65 -177
65 -287 0 -180 -63 -331 -191 -458 -127 -127 -280 -190 -458 -190 -432 0 -747
424 -621 835 35 113 78 183 165 271 63 63 99 90 165 123 141 69 287 88 433 55z
m-748 -167 c42 -24 54 -49 35 -72 -18 -22 -50 -19 -50 4 0 32 -49 56 -77 38
-19 -12 -16 -37 4 -37 21 0 83 -47 83 -63 0 -19 -41 -41 -50 -27 -6 9 -9 9
-15 0 -5 -8 1 -20 16 -31 21 -16 22 -18 6 -24 -23 -9 -79 2 -103 20 -16 12
-17 16 -5 24 23 15 5 41 -29 41 -21 0 -30 5 -30 16 0 9 -9 27 -20 41 -23 29
-20 36 21 57 37 19 55 12 64 -22 7 -25 8 -26 19 -8 45 73 66 80 131 43z m1408
-11 c18 -13 42 -27 55 -31 12 -3 22 -12 22 -19 0 -21 -26 -37 -46 -29 -18 6
-18 6 -1 -14 19 -22 23 -63 5 -63 -6 0 -20 8 -30 17 -23 21 -58 24 -58 6 0 -7
-11 -13 -23 -13 -13 0 -32 -9 -42 -20 -31 -35 -57 -22 -71 35 l-7 30 25 -22
c21 -20 27 -21 43 -10 12 10 14 16 7 21 -7 4 -12 14 -12 23 0 11 6 14 25 9 19
-5 23 -3 19 9 -4 8 -17 15 -30 15 -30 0 -31 24 -2 44 28 20 42 20 35 1 -4 -8
-2 -17 3 -20 6 -4 10 1 10 9 0 14 25 46 36 46 3 0 20 -11 37 -24z m-7 -487
c23 -24 36 -30 62 -27 29 4 32 2 32 -23 0 -27 -1 -28 -31 -17 -25 8 -37 7 -64
-8 -19 -10 -32 -22 -29 -26 3 -4 -2 -16 -12 -25 -15 -16 -14 -18 22 -30 22 -8
51 -15 67 -15 23 -1 26 -4 21 -22 -4 -12 -7 -22 -8 -23 -1 -1 -28 7 -60 18
-73 24 -69 24 -64 -6 4 -17 1 -25 -8 -25 -33 0 -9 -19 46 -36 61 -19 68 -27
50 -54 -7 -10 -13 -11 -17 -4 -12 15 -101 46 -113 39 -7 -5 -5 -11 6 -19 16
-12 15 -14 -9 -20 -29 -7 -38 -36 -12 -36 9 0 27 7 41 16 49 33 104 -29 59
-66 -8 -7 -15 -19 -15 -27 0 -11 -4 -11 -21 -2 l-21 11 23 12 c28 14 38 46 14
46 -9 0 -29 -7 -46 -15 -22 -12 -34 -13 -49 -5 -26 14 -25 28 4 81 30 54 66
159 75 218 5 37 10 45 29 46 12 1 25 5 28 8 11 10 -18 38 -33 33 -8 -3 -13 2
-13 14 0 28 12 25 46 -11z m-1556 -7 c0 -10 -16 -33 -35 -52 -19 -19 -35 -38
-35 -42 0 -11 38 -10 61 2 16 9 19 7 19 -10 0 -12 -4 -19 -9 -16 -5 3 -37 2
-70 -2 -34 -5 -61 -5 -61 0 0 5 18 28 40 52 22 24 40 46 40 49 0 9 -75 -5 -78
-15 -6 -13 -22 2 -22 20 0 14 8 17 43 14 23 -2 53 1 67 7 36 14 40 13 40 -7z
m25 -184 c3 -3 -20 -28 -51 -57 -31 -29 -57 -51 -59 -49 -1 2 -5 13 -9 24 -5
16 -2 23 14 27 16 4 18 9 12 28 -9 24 -32 38 -32 20 0 -6 -4 -11 -10 -11 -5 0
-10 8 -10 18 0 16 7 17 70 11 39 -3 73 -8 75 -11z m35 -77 c7 -15 5 -31 -10
-66 -11 -26 -20 -51 -20 -56 0 -10 50 18 61 35 4 5 12 -1 19 -14 7 -14 8 -20
1 -16 -5 4 -38 -7 -72 -24 -69 -35 -68 -37 -30 58 l21 52 -40 -20 c-22 -11
-40 -26 -40 -33 0 -8 -4 -7 -10 3 -14 21 -12 30 6 30 23 0 94 43 94 58 0 18 8
15 20 -7z m1358 -143 c7 -7 12 -20 12 -30 0 -14 8 -18 36 -18 51 0 38 -24 -15
-28 -36 -3 -41 -6 -30 -18 6 -8 18 -14 25 -14 12 0 12 -4 -1 -23 l-15 -23 -46
43 c-26 24 -51 43 -55 43 -16 0 -9 15 20 48 32 34 50 39 69 20z m-1260 -20 c9
-11 32 -38 51 -60 20 -23 28 -38 20 -38 -8 0 -20 -9 -26 -19 -10 -16 -9 -22
11 -34 22 -15 24 -14 36 9 15 27 23 30 39 11 8 -11 0 -25 -34 -61 -25 -27 -42
-52 -39 -57 9 -15 -8 -10 -27 7 -17 15 -17 17 7 38 26 21 26 21 5 40 -21 19
-38 15 -49 -14 -6 -16 -10 -16 -25 -6 -16 12 -14 17 23 57 41 45 57 86 23 58
-15 -13 -16 -11 -10 13 5 18 2 32 -9 42 -23 23 -42 20 -75 -13 -23 -24 -27
-34 -20 -53 4 -13 18 -24 30 -26 24 -4 29 -22 6 -22 -24 0 -65 46 -65 73 0 13
9 36 21 51 27 34 81 36 107 4z m1156 -67 c3 -4 -6 -13 -19 -19 -28 -13 -32
-34 -11 -51 14 -12 29 -1 37 27 3 10 10 8 23 -7 19 -21 19 -21 -2 -21 -30 0
-37 -18 -16 -41 16 -18 19 -18 35 -3 10 9 20 26 22 38 3 19 4 20 12 3 6 -14
-1 -28 -29 -56 l-38 -38 -45 49 c-58 62 -70 53 -55 -39 6 -37 9 -69 7 -71 -3
-3 -28 12 -57 32 -52 35 -78 45 -78 27 0 -20 42 -101 52 -101 18 0 -3 -17 -31
-25 -14 -4 -21 -3 -18 3 9 14 -35 112 -50 112 -22 0 -24 -22 -8 -75 23 -76 20
-79 -37 -40 -29 19 -56 35 -60 35 -9 0 8 -58 23 -76 6 -8 9 -14 6 -14 -3 0
-13 -3 -22 -6 -11 -5 -16 -2 -14 7 6 28 -23 119 -37 119 -12 0 -14 -11 -8 -58
7 -66 -6 -85 -57 -85 -36 0 -46 13 -55 73 -4 25 -11 51 -16 58 -8 9 -3 12 18
12 28 0 29 -2 32 -52 2 -57 19 -82 45 -72 19 7 24 82 7 114 -8 15 -5 19 26 25
30 5 44 1 82 -24 51 -33 62 -28 38 19 l-15 30 71 33 70 33 30 -28 c17 -15 34
-28 38 -28 11 0 -7 74 -19 78 -10 3 97 111 111 112 4 0 9 -4 12 -9z m-956
-188 c-5 -38 -10 -74 -11 -82 -1 -10 -8 -8 -27 8 -14 11 -19 20 -12 21 19 0
14 24 -8 38 -18 11 -21 10 -28 -8 -7 -19 -9 -19 -27 -6 -15 12 -16 16 -5 16 8
0 35 18 60 40 63 55 68 53 58 -27z m112 -28 c7 -25 16 -48 20 -50 11 -7 31 55
23 68 -4 7 0 8 11 4 10 -4 20 -7 23 -7 3 0 0 -6 -6 -14 -6 -7 -22 -40 -35 -72
-16 -37 -27 -53 -30 -44 -3 8 -14 40 -25 70 l-19 55 -16 -38 c-9 -21 -14 -42
-11 -47 6 -10 -18 -14 -27 -5 -3 3 6 26 18 52 13 25 24 57 24 70 0 40 35 11
50 -42z m188 -8 c6 0 12 -12 11 -26 l0 -26 -16 23 c-17 25 -55 29 -72 8 -13
-16 -18 -77 -7 -94 4 -7 19 -12 33 -12 22 0 25 3 21 30 -5 31 4 36 36 24 10
-4 12 -11 6 -22 -5 -10 -11 -25 -14 -34 -7 -22 -46 -23 -85 -3 -49 25 -56 81
-15 122 21 21 31 24 57 18 18 -4 38 -7 45 -8z"/>
<path d="M737 1932 c-23 -25 -22 -39 1 -19 10 10 22 14 25 10 4 -3 7 1 7 10 0
22 -13 21 -33 -1z"/>
<path d="M805 1836 c-19 -15 -19 -15 3 -9 30 7 28 -12 -5 -44 -18 -16 -21 -22
-8 -15 40 23 57 41 53 58 -4 24 -20 27 -43 10z"/>
<path d="M1144 1715 c-4 -8 -10 -12 -15 -9 -6 3 -16 0 -24 -6 -9 -7 -15 -8
-15 -3 0 14 -75 25 -116 17 -19 -3 -34 -12 -34 -19 0 -8 -8 -11 -20 -8 -11 3
-20 1 -20 -5 0 -6 -12 -10 -28 -10 -30 1 -109 -31 -132 -53 -8 -8 -28 -22 -43
-32 -20 -13 -26 -23 -22 -38 4 -13 2 -19 -9 -19 -8 0 -23 -16 -32 -35 -10 -22
-23 -34 -32 -33 -11 2 -18 -6 -22 -24 -3 -15 -13 -37 -23 -49 -13 -14 -15 -25
-9 -31 6 -6 8 -17 5 -24 -4 -12 -8 -12 -20 -2 -12 10 -14 7 -11 -23 2 -22 8
-34 18 -34 8 0 20 -6 26 -14 7 -9 20 -12 34 -8 13 3 30 1 38 -6 11 -9 17 -8
27 6 22 30 25 18 5 -18 -11 -20 -20 -42 -20 -50 0 -16 -12 -20 -23 -8 -4 3 -2
12 4 20 9 10 8 17 -1 28 -15 18 -50 20 -50 3 0 -7 -7 -2 -16 10 -21 30 -41 28
-59 -8 -9 -16 -20 -30 -25 -30 -6 0 -10 -14 -10 -30 0 -26 7 -34 50 -58 27
-15 50 -31 50 -35 0 -5 -4 -6 -9 -3 -9 6 -61 -15 -61 -24 0 -3 13 -13 29 -23
34 -20 82 -22 99 -5 9 9 12 7 12 -10 0 -19 3 -21 19 -13 16 9 17 7 13 -16 -4
-19 -1 -24 9 -19 8 3 22 9 32 12 9 4 17 9 17 13 0 4 9 7 20 7 21 0 26 -11 10
-21 -5 -3 -10 -11 -10 -16 0 -12 49 -9 68 4 9 7 12 -1 12 -34 l0 -42 23 21 22
21 0 -32 c0 -24 4 -31 17 -29 12 2 15 -3 11 -18 -5 -18 -2 -19 18 -12 29 11
50 43 32 49 -9 3 -10 9 -1 23 10 15 9 23 -6 39 -10 11 -15 25 -11 32 6 8 12 3
22 -15 11 -21 19 -25 38 -20 15 4 25 2 25 -5 0 -6 6 -11 13 -11 13 0 37 -72
37 -110 0 -12 -10 -24 -22 -29 -13 -5 -36 -15 -53 -22 -16 -7 -36 -11 -42 -10
-18 3 -16 -28 1 -35 8 -3 24 -1 35 5 11 7 52 13 90 15 58 3 71 1 76 -13 6 -15
7 -14 16 2 9 15 19 16 72 11 l62 -6 -19 21 c-10 11 -37 24 -60 28 -35 7 -41
13 -44 36 -9 75 65 187 140 211 25 9 34 17 36 39 2 17 9 27 20 27 9 0 28 12
41 25 13 14 31 26 40 26 9 1 23 2 31 3 8 0 16 11 18 24 2 12 8 20 13 16 5 -3
22 1 37 9 15 7 34 11 41 9 14 -5 -33 -32 -55 -32 -21 0 -29 -27 -14 -45 7 -9
10 -19 6 -23 -4 -4 -14 1 -21 12 -18 24 -65 15 -65 -14 0 -22 16 -35 25 -20 8
13 35 13 35 -1 0 -5 -5 -7 -10 -4 -6 4 -17 1 -25 -5 -12 -10 -18 -10 -30 0
-18 15 -61 6 -68 -14 -8 -19 20 -56 42 -56 10 0 30 9 45 21 l26 20 0 -20 c0
-24 22 -28 39 -7 20 24 53 27 58 6 4 -15 12 -18 37 -14 17 3 39 5 48 5 20 0
32 33 26 70 -3 26 -28 33 -36 10 -3 -8 0 -11 7 -7 6 4 11 3 11 -3 0 -5 -4 -13
-10 -16 -5 -3 -10 -1 -10 5 0 6 -4 9 -9 6 -5 -4 -7 4 -3 16 3 13 1 19 -5 15
-6 -4 -8 3 -5 18 4 23 -12 36 -20 15 -2 -6 -8 -6 -18 0 -13 8 -12 10 3 10 11
0 17 8 17 23 1 27 23 59 40 55 7 -2 15 3 18 11 2 8 0 11 -6 7 -6 -4 -8 2 -4
16 3 14 2 19 -6 14 -9 -5 -12 7 -11 41 1 26 -1 58 -4 71 -9 35 -47 82 -67 82
-10 0 -21 7 -24 16 -5 13 -9 14 -21 4 -13 -11 -14 -10 -10 3 10 23 -13 31 -40
13 -32 -21 -33 -3 -2 28 l24 24 -32 31 c-33 32 -79 43 -69 17 3 -9 -4 -15 -20
-18 -34 -7 -45 3 -42 36 4 31 -20 48 -35 25 -6 -10 -9 -8 -9 9 0 19 -4 22 -20
17 -11 -4 -20 -2 -20 4 0 17 -17 13 -24 -5 -4 -9 -2 -22 4 -28 7 -9 2 -11 -20
-8 -26 4 -30 8 -28 31 2 16 -2 25 -9 24 -7 -2 -13 4 -13 12 0 19 -19 19 -26 0z
m-83 -72 c-9 -15 -10 -12 -10 17 0 29 1 32 10 18 7 -12 7 -24 0 -35z m95 -29
c19 -9 34 -20 34 -25 0 -15 -22 -10 -36 9 -11 14 -15 14 -22 4 -7 -11 -12 -10
-26 3 -9 9 -16 18 -16 21 0 9 34 3 66 -12z m-301 -4 c3 -5 2 -10 -4 -10 -5 0
-13 5 -16 10 -3 6 -2 10 4 10 5 0 13 -4 16 -10z m-65 -14 c0 -8 -7 -16 -15
-20 -10 -4 -15 1 -15 14 0 11 7 20 15 20 8 0 15 -6 15 -14z m188 2 c-3 -7 -17
-14 -32 -15 -23 -2 -26 0 -16 13 15 17 53 19 48 2z m328 -8 c9 0 13 -4 10 -9
-7 -11 -56 -2 -56 11 0 6 7 7 16 4 9 -3 22 -6 30 -6z m-222 -25 c-4 -8 -11
-12 -16 -9 -6 4 -5 10 3 15 19 12 19 11 13 -6z m300 0 c-4 -8 -10 -15 -15 -15
-4 0 -6 7 -3 15 4 8 10 15 15 15 4 0 6 -7 3 -15z m-334 -5 c0 -5 -4 -10 -10
-10 -5 0 -10 5 -10 10 0 6 5 10 10 10 6 0 10 -4 10 -10z m-180 -17 c0 -5 -11
-13 -25 -20 -14 -6 -25 -8 -25 -4 0 5 10 13 23 19 28 14 27 13 27 5z m330 0
c-8 -3 -18 -11 -22 -17 -5 -7 -8 -4 -8 7 0 11 7 17 23 16 15 0 17 -2 7 -6z
m-235 -23 c-3 -5 -13 -10 -21 -10 -8 0 -14 5 -14 10 0 6 9 10 21 10 11 0 17
-4 14 -10z m293 -42 c-10 -20 -17 -22 -38 -8 -10 6 -11 10 -2 10 6 0 12 6 12
13 0 7 6 19 12 25 17 17 29 -16 16 -40z m-528 17 c0 -8 -4 -17 -10 -20 -6 -4
-10 5 -10 20 0 15 4 24 10 20 6 -3 10 -12 10 -20z m698 -9 c2 -10 0 -22 -6
-28 -6 -6 -11 1 -14 22 -5 32 14 38 20 6z m-448 -7 c0 -5 -4 -9 -10 -9 -5 0
-10 7 -10 16 0 8 5 12 10 9 6 -3 10 -10 10 -16z m-30 1 c0 -5 -2 -10 -4 -10
-3 0 -8 5 -11 10 -3 6 -1 10 4 10 6 0 11 -4 11 -10z m117 -12 c-3 -8 -6 -5 -6
6 -1 11 2 17 5 13 3 -3 4 -12 1 -19z m428 12 c3 -5 1 -10 -4 -10 -6 0 -11 5
-11 10 0 6 2 10 4 10 3 0 8 -4 11 -10z m-165 -10 c-8 -5 -19 -10 -25 -10 -5 0
-3 5 5 10 8 5 20 10 25 10 6 0 3 -5 -5 -10z m-168 -24 c3 3 9 1 13 -5 7 -12 0
-13 -32 -5 -13 4 -23 13 -23 22 0 13 2 13 18 -1 10 -10 21 -14 24 -11z m-212
4 c0 -5 -4 -10 -10 -10 -5 0 -10 5 -10 10 0 6 5 10 10 10 6 0 10 -4 10 -10z
m630 -11 c0 -4 -12 -7 -26 -6 -32 2 -41 -15 -19 -36 9 -9 16 -19 15 -22 -2
-34 1 -37 28 -31 l27 6 -24 -20 c-28 -24 -41 -25 -42 -5 -3 28 -4 33 -11 41
-4 4 -14 2 -22 -5 -11 -9 -15 -8 -20 4 -3 9 0 15 10 15 12 0 15 6 11 22 -8 30
17 56 48 50 14 -2 25 -8 25 -13z m-930 -6 c0 -5 -11 -13 -25 -20 -14 -6 -25
-8 -25 -4 0 5 10 13 23 19 28 14 27 13 27 5z m383 -5 c15 -16 20 -58 8 -58 -5
0 -11 6 -14 13 -6 18 -35 -8 -39 -36 l-3 -22 -14 23 c-11 21 -10 25 6 37 10 7
15 17 11 21 -9 8 10 34 24 34 5 0 15 -6 21 -12z m359 -16 c11 -13 11 -14 0 -8
-7 4 -28 1 -47 -8 -39 -19 -54 -36 -31 -36 19 0 21 -16 4 -26 -7 -5 -5 -11 7
-21 18 -12 17 -13 -8 -13 -22 0 -27 -5 -28 -27 -1 -23 -2 -24 -6 -6 -3 15 -9
20 -20 16 -11 -4 -14 -3 -9 6 4 6 3 17 -2 24 -5 7 -11 26 -14 43 -3 24 1 33
19 41 16 8 23 8 27 -1 3 -6 13 0 25 15 23 29 60 29 83 1z m228 -7 c0 -8 -2
-15 -4 -15 -2 0 -6 7 -10 15 -3 8 -1 15 4 15 6 0 10 -7 10 -15z m-810 -5 c0
-5 -6 -10 -14 -10 -8 0 -21 -3 -30 -6 -9 -3 -16 -1 -16 4 0 9 9 13 53 21 4 0
7 -3 7 -9z m135 -1 c11 -17 0 -20 -21 -4 -17 13 -17 14 -2 15 9 0 20 -5 23
-11z m203 -11 c16 -16 15 -39 0 -37 -44 5 -70 -20 -47 -47 9 -11 8 -14 -4 -14
-19 0 -29 50 -11 57 8 3 14 11 14 17 0 13 20 36 30 36 3 0 11 -5 18 -12z
m-538 -49 c0 -4 -9 -5 -20 -2 -12 3 -20 14 -20 26 0 19 1 20 20 2 11 -10 20
-21 20 -26z m470 31 c0 -5 -2 -10 -4 -10 -3 0 -8 5 -11 10 -3 6 -1 10 4 10 6
0 11 -4 11 -10z m-159 -47 c-6 -10 -11 -13 -11 -7 0 7 -9 14 -20 17 -25 6 -26
24 -2 29 26 5 45 -18 33 -39z m91 25 c-7 -7 -12 -8 -12 -2 0 14 12 26 19 19 2
-3 -1 -11 -7 -17z m442 0 c-7 -11 -54 -11 -54 0 0 5 13 9 30 9 16 0 27 -4 24
-9z m-640 -8 c15 -5 26 -17 26 -27 0 -14 -2 -15 -9 -4 -5 7 -13 11 -18 8 -5
-3 -14 3 -21 14 -14 22 -13 23 22 9z m698 -12 c-7 -7 -12 -8 -12 -2 0 6 3 14
7 17 3 4 9 5 12 2 2 -3 -1 -11 -7 -17z m-559 -3 c-3 -9 -8 -14 -10 -11 -3 3
-2 9 2 15 9 16 15 13 8 -4z m87 7 c0 -13 -12 -22 -22 -16 -10 6 -1 24 13 24 5
0 9 -4 9 -8z m594 -11 c3 -5 -6 -17 -21 -26 -24 -16 -26 -16 -20 0 4 9 7 21 7
26 0 12 27 12 34 0z m-909 -21 c3 -5 1 -10 -4 -10 -6 0 -11 5 -11 10 0 6 2 10
4 10 3 0 8 -4 11 -10z m721 -30 c18 -5 18 -6 -3 -29 l-23 -24 0 31 c0 37 -10
40 -35 12 -23 -25 -46 -10 -24 16 21 26 53 34 60 15 3 -8 14 -18 25 -21z
m-836 26 c0 -11 -19 -15 -25 -6 -3 5 1 10 9 10 9 0 16 -2 16 -4z m350 -15 c0
-6 -4 -13 -10 -16 -5 -3 -10 -16 -10 -28 -1 -21 -1 -21 -15 -3 -11 14 -11 22
-2 37 12 20 37 26 37 10z m100 -11 c-13 -24 -6 -38 24 -50 l21 -9 -22 0 c-20
-1 -23 -7 -24 -38 0 -21 -3 -31 -6 -23 -2 8 -7 21 -9 29 -4 11 -7 11 -21 0
-15 -12 -16 -11 -11 8 7 28 -7 39 -27 23 -8 -7 -15 -9 -15 -6 0 13 28 36 44
36 9 0 16 8 16 19 0 18 12 28 33 30 4 1 3 -8 -3 -19z m490 -13 c0 -20 -1 -20
-16 -5 -9 9 -13 21 -9 27 10 16 25 3 25 -22z m-740 14 c0 -12 -50 -44 -57 -37
-6 6 37 45 50 46 4 0 7 -4 7 -9z m205 -1 c3 -5 1 -10 -4 -10 -6 0 -11 5 -11
10 0 6 2 10 4 10 3 0 8 -4 11 -10z m495 -9 c0 -27 -17 -35 -23 -11 -5 19 0 30
15 30 4 0 8 -9 8 -19z m-266 -6 c-7 -18 -60 -20 -70 -4 -5 8 0 10 17 6 13 -3
31 -2 39 3 20 13 20 13 14 -5z m68 -7 c-7 -7 -12 -8 -12 -2 0 14 12 26 19 19
2 -3 -1 -11 -7 -17z m-602 -2 c0 -3 -4 -8 -10 -11 -5 -3 -10 -1 -10 4 0 6 5
11 10 11 6 0 10 -2 10 -4z m-160 -16 c0 -5 -4 -10 -10 -10 -5 0 -10 5 -10 10
0 6 5 10 10 10 6 0 10 -4 10 -10z m930 6 c0 -2 -7 -6 -15 -10 -8 -3 -15 -1
-15 4 0 6 7 10 15 10 8 0 15 -2 15 -4z m90 -6 c0 -5 -5 -10 -11 -10 -5 0 -7 5
-4 10 3 6 8 10 11 10 2 0 4 -4 4 -10z m-780 -20 c0 -5 -4 -10 -10 -10 -5 0
-10 5 -10 10 0 6 5 10 10 10 6 0 10 -4 10 -10z m121 -3 c-1 -12 -15 -9 -19 4
-3 6 1 10 8 8 6 -3 11 -8 11 -12z m289 3 c0 -5 -5 -10 -11 -10 -5 0 -7 5 -4
10 3 6 8 10 11 10 2 0 4 -4 4 -10z m-364 -9 c5 -5 18 -11 29 -14 15 -4 14 -5
-7 -6 -17 -1 -34 -11 -48 -31 -12 -16 -29 -30 -38 -30 -16 1 -15 2 1 11 9 5
17 18 17 29 0 43 22 63 46 41z m554 -11 c6 -11 9 -20 7 -20 -2 0 -12 9 -22 20
-10 11 -13 20 -7 20 6 0 16 -9 22 -20z m85 10 c-3 -5 -10 -10 -16 -10 -5 0 -9
5 -9 10 0 6 7 10 16 10 8 0 12 -4 9 -10z m-958 -22 c-3 -8 -6 -5 -6 6 -1 11 2
17 5 13 3 -3 4 -12 1 -19z m831 -11 c2 -15 -1 -27 -7 -27 -6 0 -11 3 -11 8 0
4 -3 18 -7 31 -4 18 -2 23 8 19 8 -2 15 -17 17 -31z m-391 1 c-3 -8 -6 -5 -6
6 -1 11 2 17 5 13 3 -3 4 -12 1 -19z m-327 -20 c0 -10 -3 -10 -34 2 -14 5 -26
14 -26 19 0 5 13 4 30 -2 17 -6 30 -15 30 -19z m57 10 c-3 -8 -6 -5 -6 6 -1
11 2 17 5 13 3 -3 4 -12 1 -19z m413 -3 c0 -14 -4 -25 -10 -25 -5 0 -10 11
-10 25 0 14 5 25 10 25 6 0 10 -11 10 -25z m-180 5 c0 -5 -4 -10 -10 -10 -5 0
-10 5 -10 10 0 6 5 10 10 10 6 0 10 -4 10 -10z m342 -15 c-2 -14 -8 -25 -13
-25 -5 0 -9 11 -9 25 0 14 6 25 14 25 9 0 12 -8 8 -25z m168 15 c0 -5 -5 -10
-11 -10 -5 0 -7 5 -4 10 3 6 8 10 11 10 2 0 4 -4 4 -10z m140 -11 c0 -11 -27
-12 -34 0 -3 4 -3 11 0 14 8 8 34 -3 34 -14z m-705 1 c-3 -5 -10 -10 -16 -10
-5 0 -9 5 -9 10 0 6 7 10 16 10 8 0 12 -4 9 -10z m138 -9 c-5 -21 -71 -37 -87
-21 -7 7 0 10 20 10 16 0 38 7 48 15 25 19 25 19 19 -4z m203 -6 c-9 -9 -16
-13 -16 -8 0 12 22 34 28 28 2 -2 -3 -11 -12 -20z m104 16 c0 -12 -20 -25 -27
-18 -7 7 6 27 18 27 5 0 9 -4 9 -9z m80 -22 c0 -5 -4 -9 -10 -9 -5 0 -10 7
-10 16 0 8 5 12 10 9 6 -3 10 -10 10 -16z m-334 -26 c-10 -10 -19 5 -10 18 6
11 8 11 12 0 2 -7 1 -15 -2 -18z m257 -4 c-6 -6 -19 -9 -29 -6 -17 3 -16 5 6
14 28 12 39 8 23 -8z m-503 7 c0 -3 -4 -8 -10 -11 -5 -3 -10 -1 -10 4 0 6 5
11 10 11 6 0 10 -2 10 -4z m50 -17 c0 -5 -4 -9 -10 -9 -5 0 -10 7 -10 16 0 8
5 12 10 9 6 -3 10 -10 10 -16z m40 11 c0 -5 -2 -10 -4 -10 -3 0 -8 5 -11 10
-3 6 -1 10 4 10 6 0 11 -4 11 -10z m270 -28 c-14 -46 -21 -114 -11 -108 5 4
13 28 16 54 7 53 23 100 24 70 1 -10 7 -18 15 -18 16 0 10 -47 -9 -70 -18 -21
-44 -115 -48 -179 -4 -50 -6 -55 -31 -58 -24 -3 -26 -1 -28 39 -3 70 -4 81
-17 123 -19 64 -43 87 -96 87 -55 0 -61 7 -29 35 l25 22 21 -21 c18 -18 24
-19 60 -9 21 7 42 19 45 27 3 8 14 14 24 14 11 0 22 7 25 15 10 26 23 6 14
-23z m440 18 c0 -6 -11 -8 -27 -4 -40 10 -41 14 -5 14 18 0 32 -5 32 -10z
m-660 -15 c0 -8 -7 -15 -16 -15 -14 0 -14 3 -4 15 7 8 14 15 16 15 2 0 4 -7 4
-15z m140 5 c0 -5 -4 -10 -10 -10 -5 0 -10 5 -10 10 0 6 5 10 10 10 6 0 10 -4
10 -10z m-354 -17 c21 -28 16 -39 -6 -15 -11 12 -20 24 -20 27 0 11 13 4 26
-12z m703 -7 c9 -10 9 -16 1 -21 -16 -10 -40 2 -40 20 0 19 24 20 39 1z m-179
-21 c0 -8 -4 -15 -10 -15 -5 0 -10 7 -10 15 0 8 5 15 10 15 6 0 10 -7 10 -15z
m-390 -41 c0 -16 -5 -24 -12 -21 -7 2 -13 8 -13 13 0 5 -4 14 -8 21 -4 6 -1
13 5 16 20 7 28 -2 28 -29z m-77 -9 c-3 -9 -8 -14 -10 -11 -3 3 -2 9 2 15 9
16 15 13 8 -4z m127 -66 c0 -6 -4 -7 -10 -4 -5 3 -10 11 -10 16 0 6 5 7 10 4
6 -3 10 -11 10 -16z m-20 -19 c0 -5 -5 -10 -11 -10 -5 0 -7 5 -4 10 3 6 8 10
11 10 2 0 4 -4 4 -10z"/>
<path d="M1121 948 c-1 -33 19 -88 26 -70 3 8 1 24 -5 35 -6 12 -13 31 -15 42
-4 15 -5 13 -6 -7z"/>
<path d="M1644 1205 c-8 -19 3 -35 25 -35 25 0 32 10 20 31 -12 23 -37 25 -45
4z m30 -16 c-3 -5 -10 -7 -15 -3 -5 3 -7 10 -3 15 3 5 10 7 15 3 5 -3 7 -10 3
-15z"/>
<path d="M1311 1011 c-16 -12 -22 -25 -19 -38 4 -16 -3 -22 -38 -32 -25 -8
-44 -19 -44 -27 0 -8 5 -14 11 -14 6 0 8 -9 4 -20 -4 -12 -2 -20 5 -20 7 0 9
-7 6 -15 -7 -19 19 -31 37 -17 6 5 22 13 35 16 16 6 22 3 22 -9 0 -12 10 -15
50 -14 42 2 51 6 55 23 11 47 -6 76 -32 55 -11 -9 -14 -10 -9 -1 4 6 4 12 -1
12 -4 0 -8 20 -8 44 -1 44 -17 76 -39 76 -6 0 -22 -9 -35 -19z m45 -120 c-5
-8 -56 -3 -56 5 0 2 14 4 31 4 16 0 28 -4 25 -9z m57 -16 c-3 -9 -8 -14 -10
-11 -3 3 -2 9 2 15 9 16 15 13 8 -4z"/>
<path d="M900 620 c-10 -6 -11 -10 -2 -10 7 0 12 -13 12 -31 0 -17 4 -28 10
-24 12 7 14 75 3 75 -5 0 -15 -5 -23 -10z"/>
<path d="M1004 615 c-7 -17 3 -35 18 -35 7 0 7 4 -1 13 -8 10 -7 17 1 25 9 9
9 12 0 12 -7 0 -15 -7 -18 -15z"/>
<path d="M1075 595 c0 -39 10 -46 20 -14 4 13 2 27 -6 35 -12 11 -14 8 -14
-21z"/>
<path d="M1145 620 c-3 -5 -2 -10 4 -10 5 0 13 5 16 10 3 6 2 10 -4 10 -5 0
-13 -4 -16 -10z"/>
<path d="M1214 609 c0 -10 4 -19 8 -19 4 0 8 6 8 14 0 8 -4 17 -8 20 -4 2 -8
-4 -8 -15z"/>
<path d="M1320 620 c-10 -6 -11 -10 -2 -10 7 0 12 -13 12 -30 0 -16 5 -30 10
-30 6 0 10 18 10 40 0 42 -5 46 -30 30z"/>
<path d="M1153 573 c-29 -11 -10 -23 35 -21 36 1 40 2 14 5 -18 2 -30 9 -27
14 7 10 -2 11 -22 2z"/>
<path d="M380 1412 c0 -5 7 -13 16 -16 10 -4 14 -1 12 6 -5 15 -28 23 -28 10z"/>
<path d="M1855 1510 c3 -5 10 -10 16 -10 5 0 9 5 9 10 0 6 -7 10 -16 10 -8 0
-12 -4 -9 -10z"/>
<path d="M1885 1460 c3 -5 8 -10 11 -10 2 0 4 5 4 10 0 6 -5 10 -11 10 -5 0
-7 -4 -4 -10z"/>
<path d="M286 855 c4 -8 7 -15 9 -15 1 0 8 7 15 15 10 13 9 15 -8 15 -15 0
-20 -5 -16 -15z"/>
<path d="M1700 626 c0 -22 29 -41 42 -28 8 8 8 15 -2 27 -16 19 -40 20 -40 1z"/>
<path d="M651 396 c-9 -10 -8 -15 4 -20 10 -4 15 1 15 14 0 24 -4 25 -19 6z"/>
</g>
</svg>
