<?xml version="1.0" standalone="no"?>
<!DOCTYPE svg PUBLIC "-//W3C//DTD SVG 20010904//EN"
 "http://www.w3.org/TR/2001/REC-SVG-20010904/DTD/svg10.dtd">
<svg version="1.0" xmlns="http://www.w3.org/2000/svg"
 width="860.000000pt" height="900.000000pt" viewBox="0 0 860.000000 900.000000"
 preserveAspectRatio="xMidYMid meet">

<g transform="translate(0.000000,900.000000) scale(0.100000,-0.100000)"
fill="#000000" stroke="none">
<path d="M4030 8594 c-424 -38 -753 -108 -1095 -232 -565 -205 -1059 -524
-1491 -964 -764 -777 -1167 -1796 -1141 -2888 10 -437 72 -792 207 -1191 206
-608 530 -1123 996 -1580 641 -627 1435 -1006 2344 -1116 204 -25 696 -25 900
0 909 110 1703 489 2344 1116 466 457 790 972 996 1580 93 275 148 521 187
831 25 203 25 694 0 900 -111 914 -489 1705 -1121 2348 -655 666 -1461 1062
-2396 1177 -129 16 -620 29 -730 19z m675 -34 c270 -28 620 -105 880 -193 457
-155 877 -391 1265 -712 122 -101 404 -383 505 -505 518 -627 824 -1357 906
-2160 17 -161 17 -619 0 -780 -82 -803 -388 -1533 -906 -2160 -101 -122 -383
-404 -505 -505 -627 -518 -1357 -824 -2160 -906 -161 -17 -619 -17 -780 0
-803 82 -1533 388 -2160 906 -122 101 -404 383 -505 505 -517 626 -821 1351
-907 2160 -15 148 -15 632 0 780 86 809 390 1534 907 2160 101 122 383 404
505 505 675 557 1434 857 2330 919 92 6 519 -3 625 -14z"/>
<path d="M4082 8449 c-403 -23 -810 -111 -1182 -256 -175 -68 -499 -232 -654
-331 -503 -322 -886 -705 -1208 -1208 -162 -254 -331 -619 -421 -914 -131
-427 -191 -898 -167 -1323 32 -571 153 -1035 400 -1532 159 -321 344 -594 584
-862 138 -155 174 -190 331 -328 390 -342 899 -626 1395 -778 427 -131 898
-191 1322 -167 572 32 1036 153 1533 400 359 178 683 406 979 688 90 87 298
326 390 449 260 349 470 758 595 1160 135 433 195 905 171 1336 -32 571 -153
1035 -400 1532 -319 642 -780 1153 -1396 1547 -166 106 -488 268 -669 337
-394 149 -761 226 -1195 251 -192 11 -202 11 -408 -1z m563 -34 c660 -58 1294
-289 1843 -672 353 -246 709 -602 955 -955 626 -898 837 -2017 582 -3086 -163
-683 -511 -1298 -1020 -1807 -729 -730 -1679 -1125 -2705 -1125 -789 0 -1542
236 -2188 687 -354 247 -708 601 -957 958 -377 540 -612 1185 -670 1836 -79
906 157 1799 670 2534 250 358 602 710 960 960 533 372 1184 611 1820 669 204
19 505 19 710 1z"/>
<path d="M4163 8193 c-46 -4 -60 -23 -17 -23 20 0 24 -4 20 -17 -9 -29 -76
-275 -76 -279 0 -2 -5 -4 -10 -4 -6 0 -27 33 -47 74 l-36 74 19 69 c16 55 24
69 42 71 12 2 22 8 22 14 0 7 -20 9 -57 5 -32 -4 -136 -14 -230 -24 -162 -16
-208 -27 -147 -35 23 -3 38 -28 128 -203 57 -109 108 -201 114 -203 6 -2 16
16 22 40 6 24 19 70 29 103 l18 60 47 -93 c26 -51 52 -92 58 -90 7 3 40 103
73 224 60 211 63 219 89 222 14 2 26 8 26 13 0 9 -6 9 -87 2z m-157 -55 c-4
-13 -9 -35 -12 -50 -9 -38 -17 -35 -42 16 l-21 45 32 4 c18 2 36 5 41 5 4 1 5
-8 2 -20z m-113 -93 l47 -96 -16 -57 -17 -56 -72 144 c-70 139 -72 145 -51
152 54 16 60 12 109 -87z"/>
<path d="M4314 8181 c-11 -11 -1 -21 21 -21 25 0 25 0 25 -93 0 -52 -3 -142
-7 -200 l-6 -107 -31 0 c-18 0 -26 -4 -21 -9 16 -16 195 -18 195 -3 0 6 -12
12 -27 12 l-26 0 6 152 c4 83 7 173 7 200 0 47 1 48 30 48 17 0 30 4 30 9 0 9
-187 20 -196 12z"/>
<path d="M4610 8170 c0 -5 11 -12 25 -16 14 -3 25 -12 25 -19 0 -21 -50 -359
-55 -373 -3 -8 -14 -10 -30 -6 -15 4 -25 2 -25 -4 0 -6 17 -14 38 -17 20 -4
49 -9 65 -11 34 -7 36 13 2 22 -14 3 -25 9 -25 13 1 17 50 334 53 337 2 2 45
-85 97 -194 92 -195 109 -226 117 -218 3 2 63 406 63 422 0 0 14 -1 30 -4 17
-2 30 0 30 6 0 5 -21 13 -47 17 -27 3 -58 9 -70 12 -14 3 -23 1 -23 -6 0 -6
13 -14 28 -17 l28 -6 -17 -116 c-10 -65 -18 -119 -19 -122 -1 -3 -34 60 -73
140 l-72 144 -65 13 c-82 15 -80 15 -80 3z"/>
<path d="M5102 8089 c2 -8 14 -15 26 -17 12 -2 22 -7 22 -12 0 -7 -76 -268
-101 -347 -9 -29 -13 -32 -40 -26 -48 9 -33 -12 19 -26 26 -7 55 -15 65 -18
24 -7 22 14 -3 22 -11 3 -20 13 -20 21 0 16 87 315 94 321 2 2 22 -56 45 -129
23 -73 54 -171 69 -218 15 -47 31 -85 36 -85 8 0 62 173 116 367 10 35 13 37
40 31 46 -9 35 12 -12 24 -24 6 -53 14 -65 18 -31 10 -30 -11 1 -22 l24 -8
-34 -114 c-18 -62 -35 -116 -38 -118 -2 -3 -23 55 -45 129 -58 184 -51 174
-115 192 -30 9 -63 19 -72 23 -12 4 -15 2 -12 -8z"/>
<path d="M3408 8074 c-4 -3 -69 -24 -145 -47 -76 -23 -139 -46 -140 -52 -1 -5
6 -8 15 -7 9 2 21 5 26 5 9 2 115 -334 116 -365 0 -9 -9 -20 -20 -23 -11 -3
-20 -11 -20 -17 0 -6 8 -7 18 -3 9 4 52 16 94 28 43 12 78 26 78 31 0 5 -13 6
-29 3 -29 -6 -30 -5 -51 65 -33 110 -32 121 12 132 33 8 41 7 63 -14 29 -27
30 -23 10 45 -24 79 -28 84 -34 45 -4 -24 -14 -38 -31 -47 -56 -26 -60 -23
-86 57 -13 41 -22 79 -21 84 4 12 85 36 125 36 27 0 36 -6 54 -35 28 -49 33
-38 12 29 -16 51 -30 66 -46 50z"/>
<path d="M5590 7931 c0 -5 9 -13 20 -16 11 -3 20 -12 20 -19 0 -8 -33 -91 -72
-185 -72 -170 -73 -172 -100 -167 -16 3 -28 2 -28 -2 0 -7 58 -34 172 -80 4
-2 8 2 8 8 0 7 -9 14 -20 17 -11 3 -20 11 -20 17 0 7 27 75 59 151 32 77 66
157 75 178 14 34 17 37 37 27 13 -7 25 -8 30 -3 6 6 -19 21 -63 38 -40 15 -77
32 -82 36 -13 12 -36 11 -36 0z"/>
<path d="M2830 7885 c-108 -49 -152 -163 -107 -280 50 -134 186 -198 301 -141
47 24 93 92 102 151 13 91 -50 217 -130 258 -51 27 -122 31 -166 12z m103 -45
c41 -35 104 -160 120 -236 10 -49 9 -56 -9 -81 -27 -37 -69 -56 -101 -48 -93
23 -204 293 -147 357 42 46 91 49 137 8z"/>
<path d="M5870 7811 c0 -5 9 -15 20 -22 19 -14 17 -20 -70 -178 -49 -91 -94
-169 -99 -174 -7 -7 -16 -6 -26 3 -12 10 -19 10 -27 2 -7 -7 -8 -12 -2 -12 5
0 45 -20 88 -45 77 -43 116 -53 67 -16 l-24 18 37 67 c20 36 41 66 47 66 5 0
27 -9 49 -20 76 -39 149 -19 185 50 41 78 6 134 -130 212 -105 59 -115 63
-115 49z m150 -96 c40 -21 45 -46 20 -102 -25 -57 -57 -93 -81 -93 -27 0 -70
22 -67 34 4 16 91 176 95 176 2 0 17 -7 33 -15z"/>
<path d="M2415 7655 c-48 -35 -66 -55 -48 -55 5 0 15 6 21 12 10 10 15 10 21
-1 10 -15 24 -161 17 -168 -3 -3 -41 15 -85 38 -80 44 -81 44 -59 61 13 9 20
19 17 23 -10 9 -167 -98 -168 -114 -1 -11 4 -10 23 2 22 15 29 13 131 -40 100
-53 110 -61 156 -126 27 -39 49 -75 49 -80 0 -5 -8 -16 -17 -23 -10 -7 -15
-15 -12 -19 9 -9 169 97 163 107 -3 5 -17 2 -30 -7 -23 -15 -24 -15 -80 69
l-56 85 -11 111 c-10 104 -10 113 7 125 10 8 16 19 15 24 -2 6 -27 -5 -54 -24z"/>
<path d="M6260 7585 l23 -24 -113 -158 c-62 -87 -114 -159 -116 -161 -1 -2
-14 4 -28 13 -14 10 -26 13 -26 7 0 -8 204 -163 258 -196 11 -6 24 2 48 30 43
50 45 75 3 40 -17 -14 -40 -26 -51 -26 -28 0 -129 72 -123 88 11 29 98 142
109 142 7 0 22 -10 35 -21 18 -17 22 -28 16 -55 -3 -19 -4 -34 -1 -34 8 0 88
121 83 126 -2 2 -10 -2 -17 -11 -7 -8 -22 -15 -34 -15 -24 0 -66 26 -66 41 0
8 65 104 90 132 4 4 30 -10 58 -33 54 -42 64 -69 41 -112 -14 -27 -2 -36 16
-12 28 38 50 87 40 91 -12 4 -204 139 -226 159 -28 25 -44 16 -19 -11z"/>
<path d="M4135 7489 c-146 -7 -184 -11 -325 -36 -645 -113 -1224 -431 -1655
-909 -412 -456 -661 -1011 -735 -1634 -15 -123 -15 -497 0 -620 23 -198 70
-412 127 -585 353 -1076 1285 -1841 2408 -1980 174 -22 516 -22 690 0 651 80
1239 367 1701 829 398 399 664 884 783 1431 47 216 63 371 63 615 0 458 -86
835 -287 1263 -201 430 -575 861 -984 1136 -532 357 -1128 521 -1786 490z
m585 -48 c481 -72 937 -266 1332 -568 133 -101 367 -329 475 -463 325 -402
537 -883 615 -1395 19 -128 23 -190 23 -415 0 -225 -4 -287 -23 -415 -78 -512
-290 -993 -615 -1395 -108 -134 -342 -362 -475 -463 -397 -303 -848 -494
-1337 -569 -128 -19 -190 -23 -415 -23 -225 0 -287 4 -415 23 -512 78 -993
290 -1395 615 -134 108 -362 342 -463 475 -303 397 -494 848 -569 1337 -19
128 -23 190 -23 415 0 225 4 287 23 415 75 489 266 940 569 1337 101 133 329
367 463 475 402 325 898 543 1390 612 203 29 208 29 465 26 173 -2 266 -8 375
-24z"/>
<path d="M2681 6692 c-5 -9 -18 -64 -30 -122 -114 -573 -109 -1173 14 -1725
190 -851 636 -1549 1250 -1955 105 -69 357 -200 386 -200 8 0 68 26 134 58
515 251 922 678 1215 1277 163 333 265 655 330 1041 63 375 68 856 14 1249
-17 127 -64 367 -73 376 -3 4 -732 9 -1618 13 -1523 5 -1613 5 -1622 -12z
m3039 -21 l185 -6 26 -130 c98 -487 102 -1015 13 -1510 -169 -942 -653 -1729
-1319 -2145 -89 -56 -276 -149 -312 -156 -21 -4 -60 11 -158 60 -487 241 -880
657 -1165 1229 -231 464 -358 958 -391 1522 -19 335 15 753 87 1078 l16 67
1416 -1 c779 -1 1500 -4 1602 -8z"/>
<path d="M3435 6390 c-5 -9 53 -116 179 -329 l20 -34 -40 7 c-65 12 -179 73
-239 127 -33 31 -60 48 -65 43 -13 -13 -47 -202 -60 -329 -6 -60 -13 -111 -14
-113 -2 -1 -51 24 -108 57 -58 33 -112 63 -121 67 -16 6 -17 -54 -17 -860 0
-686 3 -866 13 -866 6 0 28 10 47 22 19 12 91 54 160 93 69 40 165 95 214 123
49 29 92 52 95 52 3 0 23 -29 43 -64 20 -34 64 -100 98 -145 l61 -83 -135
-235 c-75 -129 -136 -239 -136 -244 0 -12 1717 -12 1725 1 4 7 -127 246 -244
442 l-22 36 61 83 c34 45 78 111 98 145 20 35 41 64 45 64 7 0 75 -39 389
-222 64 -37 121 -68 127 -68 8 0 11 260 11 865 0 476 -3 865 -6 865 -4 0 -58
-30 -121 -66 -63 -36 -116 -64 -118 -62 -2 2 -8 48 -14 103 -16 146 -52 326
-66 331 -6 3 -31 -14 -56 -36 -51 -47 -186 -118 -244 -127 l-39 -6 15 24 c62
95 190 330 184 338 -9 15 -1711 15 -1720 1z m1348 -521 l37 -10 0 -147 0 -147
-120 0 -120 0 2 150 3 150 30 6 c48 11 127 10 168 -2z m286 -4 c7 -4 11 -60
11 -153 l0 -147 -120 0 -120 0 0 147 0 147 33 10 c33 11 178 8 196 -4z m-989
-56 c0 -12 7 -19 20 -19 16 0 20 -7 20 -37 0 -37 -23 -73 -45 -73 -7 0 -20 15
-28 33 -15 30 -15 37 1 79 16 46 32 55 32 17z m470 -121 c0 -79 -5 -150 -10
-158 -6 -10 -10 37 -10 143 0 98 4 157 10 157 6 0 10 -54 10 -142z m580 -19
c0 -98 -4 -148 -10 -144 -6 4 -10 67 -10 156 0 98 4 148 10 144 6 -4 10 -67
10 -156z m-1114 94 c0 -32 3 -67 8 -77 6 -13 6 -17 -1 -13 -6 4 -18 22 -26 40
-13 26 -14 42 -6 70 15 55 27 45 25 -20z m-207 23 c6 -7 9 -21 5 -30 -5 -12 0
-16 17 -17 21 -1 21 -2 4 -6 -30 -7 -41 -21 -27 -35 22 -22 13 -28 -38 -28
-38 0 -50 4 -50 15 0 9 9 15 24 15 14 0 28 4 31 10 6 9 -10 15 -65 23 -14 3
-1 5 28 6 53 1 75 21 24 21 -35 0 -45 9 -31 27 15 17 63 17 78 -1z m693 -158
c3 -156 4 -163 23 -160 11 1 48 7 83 12 42 7 83 6 130 -1 85 -14 92 -14 180 0
53 8 91 8 135 1 114 -19 102 -37 105 148 1 97 6 162 12 162 6 0 10 -66 10
-170 l0 -170 -157 0 c-131 0 -159 -3 -174 -16 -17 -15 -20 -15 -43 0 -21 13
-54 16 -181 16 l-155 0 0 170 c0 143 2 170 15 170 12 0 15 -27 17 -162z
m-1009 99 c10 -6 21 -26 25 -42 l8 -30 295 -5 c314 -5 314 -5 271 -53 -25 -28
-132 -76 -201 -90 -74 -15 -102 -45 -32 -33 33 5 41 3 41 -9 0 -13 -22 -15
-140 -15 -120 0 -140 2 -140 16 0 12 8 14 45 8 38 -5 45 -4 45 10 0 10 -9 16
-25 16 -36 0 -103 28 -158 67 -29 20 -59 33 -79 33 -44 0 -68 25 -68 71 0 28
6 42 22 53 27 19 68 21 91 3z m1290 -188 c20 -5 37 -16 37 -22 0 -10 -32 -13
-130 -13 -71 1 -130 4 -130 8 0 30 147 49 223 27z m238 1 c29 -6 59 -16 66
-23 10 -9 -15 -12 -117 -13 -98 0 -130 3 -130 13 0 6 17 15 38 18 20 4 44 8
52 10 28 5 37 5 91 -5z m299 -262 c0 -13 -13 -87 -29 -165 -124 -601 -463
-1098 -899 -1317 -94 -48 -94 -48 -163 -15 -406 192 -722 599 -884 1140 -27
88 -75 316 -75 354 l0 25 1025 0 1025 0 0 -22z"/>
<path d="M3412 5708 c-7 -7 -12 -24 -12 -38 0 -14 5 -31 12 -38 7 -7 24 -12
38 -12 14 0 31 5 38 12 7 7 12 24 12 38 0 14 -5 31 -12 38 -7 7 -24 12 -38 12
-14 0 -31 -5 -38 -12z"/>
<path d="M4895 5164 c-77 -16 -140 -42 -176 -72 l-40 -35 -27 26 c-30 28 -123
77 -146 77 -29 0 -64 -155 -48 -213 8 -27 7 -37 -1 -38 -7 0 -30 -2 -52 -5
-58 -7 -113 -7 -130 0 -12 4 -13 11 -5 32 6 15 7 43 4 63 -9 50 -54 161 -66
161 -16 0 -112 -66 -142 -98 l-29 -31 -33 25 c-43 33 -113 54 -182 54 l-54 0
6 -57 c10 -81 33 -147 61 -176 l24 -24 -30 -29 c-30 -28 -105 -142 -98 -148 2
-2 14 -9 27 -15 l23 -12 -21 -17 -21 -17 32 -49 c17 -28 45 -63 61 -78 l31
-29 -21 -22 c-28 -30 -50 -93 -54 -158 l-3 -54 38 -3 c51 -4 139 22 175 53
l30 25 16 -25 c9 -13 16 -27 16 -29 0 -3 -20 -28 -44 -55 -41 -46 -44 -53 -36
-82 5 -17 12 -34 15 -38 4 -3 34 25 68 62 34 37 68 67 75 67 7 0 12 -13 12
-30 0 -17 9 -39 20 -50 16 -16 18 -25 10 -40 -25 -47 6 -100 60 -100 21 0 36
8 52 30 16 23 30 30 55 30 35 0 73 29 73 55 0 10 10 15 30 15 36 0 80 39 80
70 0 15 6 20 25 20 28 0 65 32 65 55 0 10 10 15 34 15 59 0 88 48 61 100 -14
27 -14 32 -1 45 8 8 17 27 20 42 5 21 13 28 32 29 57 4 85 73 45 113 -26 26
-10 46 43 56 40 7 176 70 176 82 0 7 -67 93 -85 108 -6 6 -24 20 -39 32 l-28
22 20 26 c27 34 45 116 40 184 -3 56 -8 62 -43 55z m15 -77 c0 -69 -25 -139
-61 -168 -34 -28 -32 -49 4 -49 13 0 43 -23 80 -61 56 -60 57 -62 38 -76 -19
-13 -125 -53 -141 -53 -4 0 -13 12 -21 26 -7 14 -24 30 -36 35 -13 5 -23 13
-23 19 0 18 35 11 54 -12 17 -20 20 -20 31 -5 7 9 20 17 29 17 9 0 16 7 16 15
0 8 -7 15 -15 15 -7 0 -18 8 -24 18 -8 14 -13 15 -30 5 -28 -17 -51 -16 -51 2
0 18 -21 20 -37 4 -6 -6 -17 -9 -23 -7 -6 2 25 45 69 95 81 91 94 113 66 113
-37 0 -92 -34 -141 -88 -45 -48 -53 -54 -54 -34 0 13 -6 22 -16 22 -14 0 -15
7 -10 40 4 29 3 40 -6 40 -7 0 -19 9 -26 20 -14 23 -34 17 -31 -8 1 -10 -1
-25 -5 -34 -5 -11 0 -24 14 -38 16 -16 19 -25 11 -34 -8 -10 -6 -19 9 -36 29
-33 25 -45 -6 -21 -15 12 -38 21 -53 22 -14 0 -20 3 -13 6 16 6 15 28 -2 42
-8 6 -16 24 -19 39 -8 38 13 152 28 158 22 9 110 -43 139 -80 15 -20 31 -36
36 -36 6 0 16 15 24 33 16 39 45 60 112 81 79 24 84 22 84 -27z m-680 -46 l24
-70 -22 -46 c-25 -51 -23 -53 47 -57 53 -4 66 -23 16 -24 -19 0 -44 -9 -55
-19 -17 -15 -25 -17 -40 -8 -14 10 -21 8 -36 -8 -9 -10 -21 -19 -26 -19 -12 0
2 53 18 66 17 14 18 31 3 36 -14 5 6 48 21 48 6 0 10 7 10 15 0 8 -4 15 -10
15 -5 0 -10 11 -10 25 0 31 -29 34 -37 5 -3 -11 -9 -20 -14 -20 -5 0 -6 -18
-3 -40 5 -33 4 -40 -10 -40 -18 0 -21 -21 -5 -37 6 -6 8 -21 4 -33 -6 -20 -8
-21 -26 -4 -10 9 -19 25 -19 35 0 19 -16 33 -40 34 -8 0 -17 11 -20 25 -3 14
-12 25 -20 25 -26 1 -40 15 -40 41 0 18 -5 24 -17 22 -10 -1 -24 1 -31 6 -18
11 -37 -8 -26 -26 5 -7 9 -20 9 -28 0 -8 11 -17 25 -20 15 -4 26 -15 30 -30 4
-15 15 -27 30 -30 18 -5 24 -12 23 -28 -2 -18 4 -24 27 -28 16 -4 37 -15 47
-26 18 -20 18 -20 -24 -13 -31 5 -43 3 -43 -5 0 -9 -12 -11 -40 -6 -31 5 -42
3 -46 -9 -4 -8 -13 -15 -21 -15 -8 0 -13 -7 -11 -17 3 -12 12 -17 26 -16 12 2
22 -2 22 -7 0 -16 30 -12 36 5 7 18 41 20 47 3 3 -10 9 -9 23 3 22 19 64 34
64 23 0 -4 -10 -19 -22 -32 -16 -17 -19 -26 -10 -29 17 -6 15 -40 -3 -47 -17
-6 -21 -36 -5 -36 6 0 10 -9 10 -20 0 -25 13 -25 40 -3 16 14 19 25 14 51 -5
25 -2 36 12 47 15 11 17 16 7 26 -16 16 -17 33 -2 23 6 -3 17 -21 25 -39 12
-31 11 -37 -17 -94 -29 -59 -82 -111 -93 -92 -14 22 -33 120 -29 144 4 22 2
27 -13 27 -11 0 -28 -7 -38 -15 -11 -8 -29 -15 -41 -15 -36 0 -145 41 -145 55
0 25 65 109 97 124 18 9 33 19 33 24 0 4 -18 25 -39 46 -40 40 -54 75 -64 159
l-5 43 36 -7 c96 -16 157 -47 181 -92 16 -30 22 -28 52 21 24 41 114 111 129
102 3 -2 17 -36 30 -74z m260 -171 c0 -5 -2 -10 -4 -10 -3 0 -8 5 -11 10 -3 6
-1 10 4 10 6 0 11 -4 11 -10z m-248 -132 c7 -15 4 -18 -15 -18 -13 0 -32 7
-43 15 -19 14 -18 14 2 9 16 -4 23 0 28 18 6 17 9 19 13 8 3 -8 10 -23 15 -32z
m-22 -104 c0 -14 -12 -19 -23 -8 -9 9 4 35 14 28 5 -3 9 -12 9 -20z m-297 -19
c52 0 57 -2 57 -22 0 -26 -18 -31 -26 -8 -7 17 -44 21 -44 5 0 -5 -9 -10 -20
-10 -26 0 -25 -10 5 -38 19 -19 28 -21 44 -13 25 14 44 14 36 1 -3 -5 6 -17
21 -26 26 -18 26 -18 5 -26 -13 -4 -21 -15 -19 -25 2 -11 -6 -19 -22 -23 -14
-3 -25 -12 -25 -20 -1 -24 -15 -40 -36 -40 -15 0 -19 -7 -19 -36 0 -29 3 -35
16 -30 9 3 22 6 30 6 8 0 20 13 25 29 7 18 16 28 24 25 8 -3 19 6 27 23 8 15
20 27 27 25 7 -1 15 6 18 17 3 11 12 22 20 25 11 4 13 1 8 -15 -5 -14 -1 -25
12 -34 15 -12 16 -17 6 -34 -10 -16 -10 -23 3 -35 15 -16 11 -56 -6 -56 -9 0
-46 43 -53 63 -3 7 -19 -3 -39 -25 -40 -43 -62 -53 -137 -63 l-53 -7 7 33 c16
79 31 114 62 144 32 31 42 55 23 55 -16 0 -77 59 -99 95 -19 32 -19 35 -3 45
9 5 28 7 42 3 14 -4 51 -8 83 -8z m226 -147 c-10 -18 -12 -19 -27 -5 -13 13
-13 19 -2 32 19 23 44 0 29 -27z m-5 -74 c3 -8 2 -12 -4 -9 -6 3 -10 10 -10
16 0 14 7 11 14 -7z"/>
<path d="M2465 4099 c-93 -39 -173 -74 -178 -78 -11 -11 44 -166 126 -358 l36
-82 -60 -23 c-40 -15 -59 -28 -59 -40 0 -53 162 -342 280 -499 89 -119 336
-362 459 -453 113 -84 300 -198 315 -193 5 2 21 30 34 63 14 32 27 61 28 63 3
4 115 -39 127 -50 4 -3 -1 -30 -12 -60 -12 -30 -21 -59 -21 -65 0 -25 241 -97
430 -129 52 -9 176 -19 276 -22 195 -6 337 4 514 38 112 22 310 76 323 88 4 5
-3 38 -17 74 -17 45 -21 67 -13 67 7 0 36 11 65 25 l52 24 29 -64 c17 -36 33
-65 37 -65 4 0 53 28 110 62 319 190 593 464 784 785 70 117 155 297 146 311
-3 5 -32 19 -65 31 l-60 22 20 47 c88 202 153 382 142 393 -16 15 -356 150
-367 146 -6 -3 -22 -37 -35 -77 -38 -119 -90 -235 -148 -331 -30 -50 -53 -93
-51 -95 2 -2 34 -17 71 -34 37 -17 67 -33 67 -37 0 -3 -23 -49 -51 -102 -100
-187 -241 -367 -397 -504 -79 -69 -213 -167 -230 -167 -5 0 -15 19 -22 41 -11
33 -22 45 -49 57 -75 31 -212 -9 -276 -79 -39 -43 -43 -68 -19 -124 21 -52 23
-51 -201 -92 -123 -23 -424 -23 -555 0 -103 18 -238 51 -248 61 -3 4 2 29 12
56 16 43 16 55 5 81 -25 63 -139 119 -240 119 -71 0 -95 -15 -115 -71 -10 -27
-21 -49 -24 -49 -15 0 -151 102 -235 177 -161 142 -303 324 -410 526 l-47 87
68 31 c38 16 70 32 72 34 2 2 -16 37 -41 77 -57 91 -99 182 -147 318 -21 58
-44 106 -51 107 -8 1 -90 -29 -184 -68z m211 -52 c28 -87 105 -254 149 -324
14 -24 24 -43 21 -43 -3 0 -23 7 -44 15 -38 16 -39 16 -175 -40 -75 -30 -140
-55 -145 -55 -15 0 -112 224 -151 351 l-18 56 161 66 c88 36 164 63 168 61 3
-2 19 -41 34 -87z m3454 13 c69 -28 131 -54 138 -57 21 -9 14 -41 -42 -182
-73 -182 -95 -231 -107 -231 -6 0 -72 25 -147 56 -134 55 -136 56 -169 40 -51
-24 -56 -20 -28 27 42 67 120 235 145 312 12 39 27 78 32 87 10 20 -4 24 178
-52z m-3346 -386 c23 -9 20 -19 -10 -33 -28 -12 -44 -7 -44 14 0 20 27 29 54
19z m3079 -16 c11 -9 14 -18 8 -27 -7 -11 -14 -11 -45 0 -34 12 -35 15 -20 26
22 16 36 16 57 1z m-3110 -123 c158 -317 431 -614 711 -774 l55 -32 -25 -57
c-14 -31 -46 -103 -71 -160 -35 -80 -50 -103 -62 -99 -34 9 -226 135 -329 216
-184 144 -376 356 -502 551 -54 86 -170 306 -170 326 0 9 297 140 326 143 5 0
36 -51 67 -114z m3324 38 c93 -36 170 -67 171 -69 2 -1 -23 -58 -57 -126 -187
-382 -475 -698 -840 -922 -51 -32 -98 -55 -105 -53 -8 4 -104 212 -141 309 -4
11 20 31 85 72 117 74 184 128 298 240 159 155 297 349 382 539 19 42 36 77
37 77 2 0 78 -30 170 -67z m-2363 -703 c27 -14 58 -38 70 -53 l21 -29 -23 -18
c-12 -10 -39 -21 -61 -25 l-38 -6 -48 -130 c-26 -71 -53 -129 -59 -129 -6 0
-35 11 -63 25 l-53 24 51 113 c28 62 53 119 56 126 3 6 -11 30 -31 52 -60 67
-50 81 59 77 53 -2 83 -9 119 -27z m1380 14 c25 -10 19 -40 -15 -79 l-31 -35
55 -128 55 -127 -47 -22 c-25 -13 -53 -23 -61 -23 -10 0 -31 42 -64 124 -48
122 -58 136 -96 136 -32 0 -70 22 -70 41 0 28 55 76 113 98 51 20 130 27 161
15z m-1576 -84 c27 -34 13 -50 -23 -26 -28 18 -27 18 -19 40 8 22 15 20 42
-14z m1622 -2 c0 -13 -30 -37 -48 -38 -8 0 -5 10 9 30 21 28 39 32 39 8z
m-1360 -82 c0 -21 -15 -28 -45 -20 -33 8 -32 22 3 27 15 2 30 5 35 6 4 0 7 -5
7 -13z m1115 -16 c23 0 10 -15 -22 -24 -16 -5 -25 -1 -34 15 -10 20 -9 21 12
16 13 -4 33 -7 44 -7z m-1110 -50 c178 -60 285 -75 540 -75 248 0 350 12 508
62 43 13 83 23 89 21 5 -2 39 -79 73 -171 l63 -168 -26 -11 c-44 -17 -240 -65
-347 -84 -82 -16 -149 -19 -375 -19 -261 1 -281 2 -403 28 -125 27 -314 82
-330 96 -4 4 20 83 53 176 33 92 60 170 60 172 0 5 2 5 95 -27z"/>
<path d="M2647 3335 c-37 -25 -67 -48 -67 -52 0 -3 12 -26 26 -51 20 -33 29
-41 37 -33 9 9 7 20 -6 43 -10 17 -16 31 -15 32 2 1 29 18 60 39 40 25 56 41
52 52 -9 21 -11 20 -87 -30z"/>
<path d="M2737 3234 c-62 -45 -74 -71 -53 -112 19 -36 57 -50 89 -33 12 7 40
27 62 46 31 26 37 36 28 46 -9 9 -23 3 -62 -25 -55 -40 -84 -43 -89 -10 -2 16
10 31 48 58 47 34 59 55 34 63 -5 1 -31 -13 -57 -33z"/>
<path d="M2866 3100 c-14 -35 -22 -41 -61 -51 -51 -13 -55 -35 -6 -33 33 2 37
-6 21 -36 -7 -13 -6 -21 5 -30 12 -10 18 -5 34 34 18 41 25 47 66 57 37 9 43
14 34 26 -8 9 -22 12 -41 7 -28 -6 -29 -5 -18 16 12 22 7 50 -9 50 -5 0 -16
-18 -25 -40z"/>
<path d="M2980 2914 l-65 -65 42 -40 c23 -21 47 -39 53 -39 18 0 11 26 -15 50
-14 13 -25 27 -25 32 0 18 32 20 51 2 15 -13 22 -15 31 -6 9 9 6 17 -10 35
-19 20 -20 26 -9 35 11 9 19 6 37 -13 13 -14 29 -25 37 -25 24 0 14 25 -25 63
l-38 37 -64 -66z"/>
<path d="M3130 2863 c0 -3 7 -14 15 -23 13 -14 9 -22 -30 -72 -37 -45 -42 -58
-31 -67 10 -9 22 -1 52 36 22 25 42 51 46 57 5 8 11 7 20 -2 14 -14 38 -16 38
-2 0 16 -74 79 -92 80 -10 0 -18 -3 -18 -7z"/>
<path d="M5967 3479 c-20 -37 -25 -55 -18 -62 8 -8 15 -5 26 9 14 19 16 18 76
-14 40 -21 65 -30 72 -23 14 14 3 26 -58 60 -49 28 -55 34 -49 56 11 44 -19
28 -49 -26z"/>
<path d="M5914 3389 c-5 -8 1 -18 16 -28 66 -44 66 -46 -2 -46 -90 0 -90 -21
-1 -77 37 -24 70 -43 73 -42 3 0 6 8 8 16 2 10 -13 25 -39 40 l-42 23 68 5
c40 3 70 10 72 17 2 6 -23 30 -56 52 -74 51 -87 56 -97 40z"/>
<path d="M5793 3212 c-9 -16 -4 -28 33 -78 25 -32 49 -66 54 -74 7 -12 11 -13
22 -2 9 9 10 17 1 30 -14 24 8 56 40 57 44 0 31 19 -35 46 -99 40 -102 41
-115 21z m78 -43 c11 -5 17 -14 14 -20 -10 -15 -23 -11 -35 11 -12 23 -7 25
21 9z"/>
<path d="M5702 3100 c-19 -22 -32 -44 -30 -49 4 -11 120 -111 127 -110 3 0 21
18 40 40 23 27 31 44 26 56 -6 16 -10 14 -37 -16 -27 -31 -31 -32 -46 -18 -14
15 -14 18 3 37 15 16 16 23 6 33 -9 9 -16 7 -30 -12 -10 -13 -23 -21 -30 -17
-17 11 -13 27 10 52 19 20 19 44 1 44 -4 0 -22 -18 -40 -40z"/>
<path d="M5587 2972 l-37 -38 65 -64 c53 -52 65 -61 71 -46 4 11 -1 26 -15 40
-29 30 -13 41 35 26 24 -8 39 -9 46 -2 15 15 2 30 -32 37 -23 5 -30 12 -30 30
0 23 -32 55 -55 55 -6 0 -28 -17 -48 -38z m68 -13 c4 -5 -1 -19 -11 -30 -16
-17 -19 -18 -32 -5 -13 12 -13 18 -2 30 14 18 36 21 45 5z"/>
<path d="M5472 2873 c-33 -28 -36 -63 -10 -103 33 -49 74 -67 107 -49 14 8 32
26 40 40 12 22 12 29 -3 60 -17 37 -61 69 -94 69 -11 0 -29 -8 -40 -17z m78
-39 c56 -47 25 -109 -35 -70 -30 19 -42 60 -25 81 17 20 24 19 60 -11z"/>
<path d="M5333 2758 c-9 -10 -2 -26 33 -73 25 -33 49 -64 54 -69 8 -8 28 4 89
50 2 2 1 10 -3 19 -5 14 -10 13 -37 -7 l-31 -23 -27 34 c-64 82 -66 84 -78 69z"/>
<path d="M5252 2706 c-18 -13 -36 -26 -39 -29 -8 -9 80 -147 94 -147 21 0 23
18 6 49 -18 30 -18 31 5 47 30 21 15 41 -18 24 -17 -9 -25 -9 -34 0 -8 9 -4
17 17 34 53 43 26 62 -31 22z"/>
<path d="M3825 2433 c8 -97 10 -103 30 -103 16 0 98 154 88 164 -16 16 -32 2
-54 -46 l-23 -53 -6 60 c-4 48 -9 61 -23 63 -18 4 -18 -2 -12 -85z"/>
<path d="M3962 2404 c-7 -48 -10 -89 -9 -90 2 -2 29 -6 60 -10 47 -6 57 -4 57
8 0 10 -14 18 -41 22 -31 5 -40 10 -37 24 2 11 14 18 36 20 40 4 43 29 5 34
-45 5 -36 33 11 34 22 0 42 6 44 12 4 14 -7 18 -69 27 l-46 6 -11 -87z"/>
<path d="M4666 2477 c-12 -9 -17 -23 -14 -42 2 -25 10 -32 47 -45 24 -8 46
-21 49 -28 6 -18 -28 -27 -51 -13 -13 9 -23 9 -30 2 -16 -16 11 -41 45 -41 45
0 68 17 68 50 0 32 -24 53 -73 64 -41 10 -28 32 17 28 37 -3 45 5 24 26 -16
16 -60 15 -82 -1z"/>
<path d="M4115 2384 c-4 -47 -4 -88 -1 -91 14 -14 36 9 36 37 0 42 25 39 40
-4 10 -31 36 -54 48 -42 2 3 -1 19 -8 37 -11 27 -11 35 4 60 31 53 -1 89 -78
89 l-34 0 -7 -86z m84 47 c21 -14 5 -41 -25 -41 -20 0 -25 4 -20 16 3 9 6 20
6 25 0 11 21 11 39 0z"/>
<path d="M4526 2453 c-7 -25 -26 -134 -26 -150 0 -21 28 -15 35 7 8 24 50 27
63 4 5 -9 16 -14 25 -13 13 3 10 17 -16 87 -26 69 -35 82 -54 82 -12 0 -24 -8
-27 -17z m43 -63 c9 -26 8 -30 -8 -30 -14 0 -17 6 -13 30 2 17 6 30 7 30 2 0
8 -13 14 -30z"/>
<path d="M4290 2370 c0 -73 3 -90 15 -90 10 0 15 10 15 29 0 15 3 56 6 90 7
58 6 61 -15 61 -20 0 -21 -5 -21 -90z"/>
<path d="M4360 2445 c0 -8 8 -15 19 -15 14 0 20 -10 25 -46 3 -26 6 -60 6 -75
0 -19 5 -29 15 -29 12 0 15 15 15 75 0 68 2 75 20 75 11 0 20 7 20 15 0 12
-13 15 -60 15 -47 0 -60 -3 -60 -15z"/>
<path d="M1975 7325 c-66 -58 -123 -105 -127 -105 -18 0 -5 -38 27 -75 35 -41
59 -44 31 -3 -24 34 -20 71 13 102 l29 28 130 -149 130 -148 -21 -22 c-11 -13
-18 -26 -14 -29 6 -6 149 111 155 128 5 12 -6 10 -31 -7 -23 -14 -26 -11 -133
112 -165 193 -152 171 -118 199 36 29 64 30 98 3 43 -34 43 -12 1 31 -22 22
-42 40 -45 39 -3 0 -59 -47 -125 -104z"/>
<path d="M6570 7261 c-144 -44 -231 -212 -171 -329 49 -97 151 -129 229 -73
35 26 42 28 52 15 13 -15 34 -20 28 -6 -7 18 -149 144 -155 138 -3 -3 4 -17
17 -31 l24 -25 -34 -35 c-44 -45 -79 -46 -115 -3 -44 52 -22 106 92 223 97 99
139 114 192 70 52 -44 61 -114 23 -173 -29 -45 -2 -34 45 18 58 64 62 73 30
65 -21 -6 -25 -2 -30 22 -21 96 -127 154 -227 124z"/>
<path d="M1696 7063 c-38 -40 -66 -77 -62 -80 4 -4 16 3 28 14 l21 22 143
-137 c140 -132 143 -136 129 -159 -16 -24 -19 -37 -7 -31 18 8 135 139 129
145 -4 3 -15 -2 -26 -11 -18 -16 -24 -12 -165 120 l-146 138 21 22 c11 12 17
24 12 27 -4 2 -39 -29 -77 -70z"/>
<path d="M1535 6881 c5 -15 -1 -24 -24 -35 -69 -36 -100 -132 -62 -194 27 -42
77 -72 121 -72 35 0 60 13 122 62 48 39 87 45 116 18 73 -69 -40 -200 -138
-160 -49 20 -45 5 11 -39 57 -45 73 -51 64 -22 -4 15 3 24 32 41 77 43 111
134 75 200 -36 66 -109 96 -175 71 -13 -5 -45 -28 -71 -50 -55 -48 -91 -53
-124 -18 -33 35 -28 73 13 114 30 30 40 34 73 31 20 -3 45 -8 55 -12 35 -16
16 13 -32 48 -56 41 -65 44 -56 17z"/>
<path d="M7055 6864 c9 -14 15 -27 13 -28 -2 -1 -72 -55 -157 -120 l-153 -117
-24 22 c-13 12 -24 17 -24 11 0 -17 113 -161 122 -156 4 3 1 16 -8 28 -15 23
-13 25 57 80 40 31 76 56 80 56 4 0 17 -12 28 -26 23 -30 27 -64 9 -82 -6 -6
-9 -14 -7 -17 7 -7 115 76 109 84 -3 3 -7 5 -10 4 -3 -1 -13 -5 -22 -8 -12 -5
-27 3 -48 23 -16 17 -30 35 -30 40 0 10 99 89 124 98 19 7 86 -82 86 -114 0
-14 -10 -36 -22 -49 -33 -35 -13 -40 29 -7 20 16 41 32 46 35 5 3 -33 60 -83
125 -51 65 -95 125 -97 131 -3 7 -12 13 -20 13 -13 0 -13 -4 2 -26z"/>
<path d="M1275 6498 c-36 -34 -147 -209 -138 -218 2 -3 13 5 23 18 l19 23 163
-97 c90 -54 167 -100 171 -104 5 -4 3 -17 -4 -28 -7 -12 -9 -25 -5 -29 5 -4
11 -3 13 3 2 6 24 44 49 84 42 69 52 109 15 64 l-17 -22 -75 45 c-98 59 -97
58 -69 88 29 31 75 33 127 5 52 -27 104 -26 131 3 23 24 29 71 11 82 -15 10
-24 -3 -11 -18 6 -7 7 -18 2 -26 -6 -12 -18 -8 -58 18 -63 40 -109 48 -150 27
-32 -16 -32 -16 -32 8 0 59 -46 106 -105 106 -15 0 -40 -13 -60 -32z m88 -79
c39 -32 47 -62 24 -93 -13 -18 -18 -17 -85 24 -40 23 -72 45 -72 49 0 4 7 17
16 29 23 33 71 29 117 -9z"/>
<path d="M7129 6447 c-43 -22 -73 -46 -94 -75 -27 -40 -30 -51 -30 -122 0 -72
2 -81 31 -116 89 -110 255 -102 358 17 57 68 70 142 37 214 -52 113 -178 147
-302 82z m252 -56 c35 -36 41 -71 17 -118 -15 -30 -118 -101 -187 -130 -78
-31 -116 -30 -152 6 -35 36 -38 80 -8 123 40 56 208 147 272 148 18 0 39 -10
58 -29z"/>
<path d="M1059 6133 c-11 -26 -34 -82 -51 -123 -17 -41 -38 -85 -46 -98 -20
-31 -5 -43 17 -13 l18 23 182 -78 c121 -53 180 -83 176 -91 -3 -7 -8 -20 -11
-28 -3 -8 -1 -15 5 -15 7 0 14 8 18 18 3 9 30 73 60 142 31 69 57 130 60 137
5 13 -95 68 -105 58 -4 -3 8 -17 26 -31 39 -31 41 -59 7 -131 -13 -29 -26 -53
-28 -53 -14 0 -162 71 -165 79 -2 5 4 23 12 40 12 22 24 31 48 33 33 4 32 4
-26 31 -73 34 -82 34 -56 -1 18 -24 19 -31 8 -60 -7 -17 -17 -32 -23 -32 -15
0 -155 63 -155 69 1 3 13 31 29 61 l28 55 51 0 c29 -1 52 2 52 6 0 3 -21 15
-47 25 -27 11 -51 20 -55 22 -5 2 -17 -18 -29 -45z"/>
<path d="M7542 6091 l3 -34 -143 -57 c-154 -62 -186 -84 -203 -140 -29 -97 68
-231 156 -215 17 3 93 30 170 60 129 52 141 55 152 38 7 -9 13 -21 13 -27 0
-6 3 -7 10 0 6 6 1 30 -13 66 -23 60 -44 78 -34 30 6 -28 4 -28 -139 -85 -168
-66 -203 -70 -245 -28 -38 38 -41 106 -6 138 29 27 302 137 322 129 8 -3 15
-12 15 -21 0 -8 5 -15 10 -15 15 0 13 7 -21 95 -36 93 -52 116 -47 66z"/>
<path d="M907 5770 c-20 -69 -20 -70 -8 -70 5 0 12 12 15 26 4 14 10 24 15 22
15 -6 240 -183 241 -189 0 -4 -44 -9 -97 -13 -54 -4 -125 -9 -157 -13 l-59 -6
6 25 c4 14 4 28 0 32 -7 7 -62 -155 -63 -181 0 -23 18 -14 24 12 4 15 14 25
24 25 51 1 445 39 450 44 3 4 -3 13 -14 21 -10 7 -93 72 -184 142 -147 115
-165 132 -162 156 5 49 -14 28 -31 -33z"/>
<path d="M7715 5601 c7 -34 28 -26 -204 -80 -177 -42 -190 -42 -191 -3 0 6 -5
12 -11 12 -7 0 -9 -10 -4 -27 4 -16 11 -43 14 -62 3 -19 12 -36 18 -38 9 -3
11 4 7 24 l-6 29 119 28 c65 15 142 34 171 41 28 7 52 11 52 8 0 -3 -57 -67
-127 -142 -70 -75 -140 -151 -157 -168 -16 -18 -27 -35 -25 -38 4 -4 346 73
401 91 13 4 19 -2 24 -20 3 -14 11 -26 16 -26 6 0 8 10 5 23 -3 12 -9 39 -12
60 -9 46 -25 59 -25 19 0 -29 -2 -30 -105 -56 -57 -14 -112 -26 -122 -26 -12
0 7 25 57 78 42 42 93 96 114 118 l38 42 -17 71 c-10 39 -22 71 -27 71 -5 0
-7 -13 -3 -29z"/>
<path d="M786 5328 c-2 -7 -7 -33 -10 -58 -3 -25 -8 -64 -12 -87 -4 -29 -3
-43 5 -43 6 0 11 11 11 25 0 14 4 25 8 25 9 0 255 -44 340 -61 48 -10 52 -12
46 -34 -3 -12 -1 -25 4 -29 5 -3 17 33 26 83 19 104 19 111 6 111 -5 0 -10
-11 -10 -25 0 -14 -5 -25 -10 -25 -16 0 -352 60 -373 66 -14 4 -17 12 -13 29
6 25 -11 46 -18 23z"/>
<path d="M7825 5102 l6 -29 -148 -12 c-81 -7 -171 -15 -200 -18 -50 -5 -52 -5
-59 21 -10 42 -24 30 -18 -16 2 -24 8 -87 13 -140 7 -83 12 -103 35 -133 42
-54 98 -79 181 -79 91 0 164 36 202 102 25 42 26 47 19 155 -8 134 -15 177
-28 177 -5 0 -7 -12 -3 -28z m10 -166 c16 -101 -49 -141 -227 -141 -102 0
-109 1 -133 25 -18 19 -27 41 -32 78 -3 29 -2 52 3 53 142 14 291 27 331 28
l52 1 6 -44z"/>
<path d="M730 4990 c0 -33 0 -62 0 -65 0 -3 3 -6 8 -7 4 -2 8 9 10 24 l3 27
97 -5 c170 -10 170 -8 13 -98 l-139 -78 -6 -46 c-9 -65 -7 -102 4 -102 6 0 10
12 10 26 l0 27 88 -6 c48 -4 138 -9 200 -13 l112 -7 0 -28 c0 -16 5 -29 10
-29 6 0 10 17 10 39 0 21 3 53 6 70 4 19 2 31 -4 31 -6 0 -12 -12 -14 -27 l-3
-28 -110 4 c-60 2 -141 6 -180 10 l-70 6 145 84 c233 135 262 153 253 161 -7
6 -324 30 -400 30 -19 0 -23 6 -23 30 0 17 -4 30 -10 30 -6 0 -10 -27 -10 -60z"/>
<path d="M7440 4615 c0 -37 4 -65 10 -65 6 0 10 11 10 25 0 14 2 25 4 25 2 0
29 -11 61 -25 l57 -25 -7 -68 c-4 -37 -10 -70 -14 -73 -5 -5 -99 -39 -108 -39
-2 0 -3 11 -3 25 0 14 -4 25 -10 25 -6 0 -10 -28 -10 -62 0 -35 -3 -80 -6
-100 -4 -24 -3 -38 4 -38 6 0 12 12 14 27 3 25 14 30 226 101 122 40 222 77
222 81 0 4 -96 51 -212 103 -195 87 -213 97 -216 121 -6 53 -22 26 -22 -38z
m288 -132 c23 -10 12 -19 -45 -37 -32 -10 -64 -21 -70 -23 -10 -4 -13 11 -13
56 l0 61 58 -26 c31 -14 63 -28 70 -31z"/>
<path d="M710 4523 c0 -48 12 -103 22 -103 6 0 8 11 6 25 -3 14 -5 25 -4 26 0
0 73 7 161 14 147 13 163 12 195 -3 44 -21 62 -56 56 -106 -8 -68 -27 -78
-178 -92 -73 -7 -152 -13 -175 -13 -39 -1 -43 1 -43 24 0 14 -6 25 -12 25 -10
0 -11 -22 -4 -100 5 -55 13 -100 18 -100 4 0 8 13 8 29 0 32 -10 30 215 47
103 7 139 19 169 54 50 60 42 181 -15 236 -28 26 -37 29 -102 29 -40 0 -123
-4 -184 -9 l-113 -8 0 26 c0 14 -4 26 -10 26 -5 0 -10 -12 -10 -27z"/>
<path d="M7740 4211 c0 -5 17 -18 38 -28 34 -17 37 -22 40 -65 3 -46 2 -48
-24 -48 -24 0 -297 43 -351 55 -19 4 -22 10 -16 35 3 18 1 30 -5 30 -5 0 -15
-30 -21 -67 -7 -38 -14 -83 -17 -100 -4 -21 -2 -33 5 -33 6 0 11 9 11 19 0 11
4 22 9 26 8 5 380 -53 389 -60 2 -2 -2 -21 -8 -44 -12 -45 -33 -61 -79 -61
-52 0 -34 -17 25 -24 30 -3 59 -4 63 -1 5 2 11 33 15 68 3 34 15 109 26 166
11 57 17 107 15 111 -3 4 -22 11 -42 14 -21 4 -46 9 -55 12 -10 3 -18 1 -18
-5z"/>
<path d="M1156 3985 c-55 -12 -76 -34 -26 -27 48 7 74 -18 91 -85 8 -32 14
-62 14 -67 0 -6 -40 -20 -90 -32 -99 -25 -105 -23 -105 33 0 22 7 37 20 45 36
23 21 26 -42 10 -70 -17 -96 -32 -56 -32 16 0 33 -9 42 -22 16 -23 22 -68 9
-68 -5 0 -39 -9 -78 -20 -38 -10 -72 -17 -76 -15 -3 3 -12 32 -19 66 l-13 62
27 24 c15 12 34 23 42 23 8 0 14 5 14 10 0 14 -19 12 -74 -6 -41 -14 -47 -19
-42 -38 4 -11 21 -79 40 -151 19 -71 39 -131 45 -133 7 -2 9 7 5 25 l-6 28
189 48 c103 26 191 48 196 47 4 0 7 -9 7 -19 0 -18 17 -38 24 -30 5 5 -77 326
-84 331 -3 2 -27 -1 -54 -7z"/>
<path d="M7340 3856 c0 -7 -11 -50 -23 -95 -13 -44 -20 -81 -15 -81 5 0 13 11
18 24 l9 25 88 -25 c48 -13 134 -36 191 -51 l104 -27 -6 -29 c-4 -19 -2 -27 6
-25 6 2 22 42 34 89 27 98 27 99 14 99 -5 0 -10 -6 -10 -12 -1 -41 -14 -40
-208 13 l-191 53 6 28 c3 17 1 28 -6 28 -6 0 -11 -6 -11 -14z"/>
<path d="M1302 3579 l3 -33 -175 -73 c-96 -40 -178 -73 -181 -73 -3 0 -12 12
-19 28 -28 60 -19 -2 12 -82 32 -83 56 -115 43 -58 -6 27 -3 29 75 61 44 19
82 32 84 30 3 -5 56 -130 56 -134 0 -1 -36 -17 -81 -35 -83 -34 -88 -33 -102
5 -3 6 -8 7 -12 3 -5 -4 6 -40 23 -79 18 -39 32 -78 32 -85 0 -8 7 -14 16 -14
10 0 14 5 10 15 -3 8 -8 21 -11 28 -4 8 55 37 181 88 l185 77 9 -24 c5 -13 15
-24 21 -24 6 0 9 6 6 13 -3 6 -20 46 -37 87 -38 89 -55 111 -46 60 l6 -35 -90
-37 -89 -36 -27 69 c-15 38 -25 71 -23 72 2 2 43 20 90 39 l87 36 11 -24 c6
-13 15 -24 21 -24 14 0 13 5 -14 58 -13 26 -29 64 -35 84 -16 50 -34 60 -29
17z"/>
<path d="M7329 3557 c-160 -60 -188 -254 -52 -351 60 -42 97 -54 166 -55 171
-2 265 176 164 312 -59 78 -196 124 -278 94z m144 -106 c135 -57 173 -113 127
-188 -35 -59 -132 -52 -272 18 -110 56 -136 114 -81 179 25 31 29 32 87 28 39
-3 90 -17 139 -37z"/>
<path d="M7090 3164 c-33 -57 -34 -84 -3 -45 l18 22 152 -87 c84 -48 152 -89
150 -90 -1 -2 -84 -8 -182 -14 -261 -15 -291 -19 -274 -35 8 -7 91 -57 184
-110 94 -54 172 -100 174 -102 3 -2 -1 -9 -7 -15 -13 -13 -16 -38 -4 -38 9 0
62 96 62 113 -1 6 -10 1 -21 -12 l-20 -24 -37 21 c-20 12 -67 39 -104 59 -37
20 -65 40 -63 44 3 4 72 10 154 14 81 4 152 10 158 14 14 9 73 110 73 124 -1
6 -9 2 -19 -10 -11 -13 -23 -23 -28 -23 -4 1 -80 43 -168 95 -155 90 -160 94
-157 124 1 17 0 31 -2 31 -3 0 -19 -25 -36 -56z"/>
<path d="M1530 3087 c0 -7 5 -18 12 -25 6 -6 10 -14 7 -16 -10 -9 -331 -196
-338 -196 -10 0 -41 56 -41 75 0 9 14 30 30 47 53 52 13 48 -54 -6 l-28 -22
49 -79 c28 -44 67 -111 88 -150 21 -38 39 -71 41 -73 5 -7 104 49 104 58 0 12
-2 12 -36 -1 -41 -15 -68 -4 -89 35 -11 20 -17 37 -15 39 3 2 79 47 170 101
l165 96 17 -22 c30 -40 30 -12 -1 33 -16 24 -37 61 -47 82 -18 37 -34 49 -34
24z"/>
<path d="M2980 1754 c0 -7 6 -14 14 -14 8 0 18 -5 21 -10 4 -6 -26 -92 -65
-191 l-73 -180 -28 6 c-16 4 -29 3 -29 -2 0 -7 245 -112 301 -130 11 -3 22 10
37 48 12 29 20 54 18 57 -3 2 -17 -10 -31 -27 -32 -37 -57 -39 -128 -9 -29 12
-53 22 -55 24 -9 6 66 169 79 172 25 5 69 -37 70 -66 1 -22 7 -15 30 37 32 66
32 86 1 58 -22 -20 -62 -22 -85 -4 -15 11 -13 18 15 87 17 41 32 76 33 78 5 6
96 -35 116 -51 17 -15 19 -25 13 -65 -8 -57 5 -48 30 21 10 27 14 52 10 56 -5
4 -49 23 -99 41 -49 18 -114 43 -142 56 -42 18 -53 20 -53 8z"/>
<path d="M5433 1701 c-40 -18 -73 -61 -73 -94 0 -8 9 -22 21 -33 15 -14 24
-16 37 -8 26 17 28 54 2 61 -28 7 -22 34 12 51 20 9 33 10 47 3 22 -12 51 -80
51 -120 0 -32 -13 -46 -53 -56 -28 -7 -43 -22 -34 -32 3 -3 26 3 51 12 42 16
47 16 71 1 33 -22 51 -51 67 -110 13 -47 12 -48 -16 -73 -20 -17 -38 -23 -60
-21 -27 3 -31 7 -31 32 0 32 -23 53 -49 43 -25 -10 -19 -53 10 -76 75 -59 224
19 224 118 0 66 -56 121 -124 121 -32 0 -32 3 -4 41 70 95 -34 193 -149 140z"/>
<path d="M3373 1586 c-38 -17 -73 -80 -73 -129 0 -47 37 -97 92 -127 66 -36
88 -59 88 -92 0 -58 -75 -88 -140 -55 -38 19 -72 77 -66 110 3 15 1 27 -4 27
-10 0 -40 -91 -40 -122 0 -15 3 -16 19 -6 16 10 24 7 50 -15 112 -94 283 5
243 141 -14 46 -28 60 -107 104 -73 41 -90 74 -58 116 52 69 173 19 173 -73 0
-44 15 -27 32 35 l16 60 -23 -6 c-15 -4 -34 2 -53 16 -37 28 -107 35 -149 16z"/>
<path d="M5100 1581 c-54 -28 -75 -73 -74 -156 2 -114 54 -225 125 -264 89
-51 176 2 195 116 15 98 -49 256 -121 299 -50 29 -79 30 -125 5z m79 -27 c27
-35 54 -110 81 -226 25 -108 22 -143 -15 -160 -45 -20 -78 29 -119 182 -39
148 -42 184 -17 209 28 28 45 26 70 -5z"/>
<path d="M3647 1527 c-13 -35 -19 -107 -8 -107 6 0 11 9 11 19 0 10 8 29 18
42 15 18 28 22 62 21 24 -1 44 -3 46 -4 1 -2 -11 -91 -27 -198 -16 -107 -29
-196 -29 -197 0 -1 -13 0 -30 4 -19 3 -30 1 -30 -6 0 -6 3 -11 8 -11 10 0 131
-19 165 -26 34 -7 37 13 2 22 -30 7 -30 -4 3 214 l28 175 38 -2 c51 -3 66 -18
66 -64 0 -40 13 -52 24 -23 3 9 6 35 6 58 l0 42 -147 23 c-82 12 -160 24 -174
27 -18 4 -28 1 -32 -9z"/>
<path d="M4703 1500 c-53 -32 -68 -72 -68 -180 0 -86 3 -101 30 -155 35 -69
80 -105 134 -105 46 0 95 30 116 70 38 74 25 234 -27 318 -42 69 -121 91 -185
52z m83 -8 c22 -14 35 -53 54 -167 32 -185 23 -245 -36 -245 -34 0 -59 57 -79
181 -20 125 -20 197 2 221 17 19 40 23 59 10z"/>
<path d="M4289 1461 c-16 -17 -29 -40 -29 -54 0 -46 50 -63 74 -24 9 15 6 22
-14 39 -24 19 -24 20 -5 34 25 18 70 18 88 -1 25 -24 30 -89 13 -147 -9 -32
-44 -96 -86 -157 -39 -57 -68 -106 -63 -110 4 -4 63 -5 129 -3 l122 4 4 76 c5
84 -5 118 -16 52 -3 -22 -12 -43 -20 -46 -7 -3 -43 -4 -79 -2 l-65 3 64 75
c79 91 104 137 104 188 0 66 -50 102 -141 102 -42 0 -55 -5 -80 -29z"/>
<path d="M4002 1108 c-29 -29 -3 -72 40 -66 19 2 23 9 23 38 0 30 -4 35 -25
38 -14 2 -31 -3 -38 -10z"/>
</g>
</svg>
